<?xml version="1.0" encoding="UTF-8" standalone="no"?>
<svg
   xmlns:dc="http://purl.org/dc/elements/1.1/"
   xmlns:cc="http://creativecommons.org/ns#"
   xmlns:rdf="http://www.w3.org/1999/02/22-rdf-syntax-ns#"
   xmlns:svg="http://www.w3.org/2000/svg"
   xmlns="http://www.w3.org/2000/svg"
   xmlns:sodipodi="http://sodipodi.sourceforge.net/DTD/sodipodi-0.dtd"
   xmlns:inkscape="http://www.inkscape.org/namespaces/inkscape"
   width="744.094488189"
   height="1052.36220472"
   id="svg2"
   version="1.1"
   inkscape:version="0.91 r13725"
   sodipodi:docname="ErgoDOX Case Layer 5 Bottom - Left.svg">
  <metadata
     id="metadata81">
    <rdf:RDF>
      <cc:Work
         rdf:about="">
        <dc:format>image/svg+xml</dc:format>
        <dc:type
           rdf:resource="http://purl.org/dc/dcmitype/StillImage" />
        <dc:title />
      </cc:Work>
    </rdf:RDF>
  </metadata>
  <sodipodi:namedview
     pagecolor="#ffffff"
     bordercolor="#666666"
     borderopacity="1"
     objecttolerance="10"
     gridtolerance="10"
     guidetolerance="10"
     inkscape:pageopacity="0"
     inkscape:pageshadow="2"
     inkscape:window-width="1858"
     inkscape:window-height="1177"
     id="namedview79"
     showgrid="false"
     inkscape:zoom="1.7940591"
     inkscape:cx="339.72434"
     inkscape:cy="308.42821"
     inkscape:window-x="-8"
     inkscape:window-y="-8"
     inkscape:window-maximized="1"
     inkscape:current-layer="g21" />
  <desc
     id="desc4">C:\Users\forre\OneDrive\Documents\VBOX_SHARE\Ergodox\ErgoDOX Acrylic Case - Designed by Litster\Standard\Left\ErgoDOX Case Layer 5 Bottom - Left.dxf - scale = 1.000000, origin = (0.000000, 0.000000), auto = False</desc>
  <defs
     id="defs6">
    <marker
       refY="0.0"
       refX="0.0"
       style="overflow:visible"
       id="DistanceX"
       orient="auto">
      <path
         style="stroke:#000000; stroke-width:0.01mm"
         d="M 3,-3 L -3,3 M 0,-5 L  0,5"
         id="path9" />
    </marker>
    <pattern
       height="8"
       width="8"
       patternUnits="userSpaceOnUse"
       y="0"
       x="0"
       id="Hatch">
      <path
         linecap="square"
         stroke="#000000"
         stroke-width="0.25"
         d="M8 4 l-4,4"
         id="path12" />
      <path
         linecap="square"
         stroke="#000000"
         stroke-width="0.25"
         d="M6 2 l-4,4"
         id="path14" />
      <path
         linecap="square"
         stroke="#000000"
         stroke-width="0.25"
         d="M4 0 l-4,4"
         id="path16" />
    </pattern>
    <symbol
       id="*Model_Space" />
    <symbol
       id="*Paper_Space" />
    <symbol
       id="*Paper_Space0" />
  </defs>
  <g
     inkscape:label="0"
     inkscape:groupmode="layer"
     id="g21">
    <path
       style="stroke:#0000FF;stroke-width:0.01mm;stroke-width:0.01mm;fill:none"
       d="M 772.648351,804.690407 A 5.314961,5.314961 -0.000000 1 0 762.018430,804.690407 5.314961,5.314961 -0.000000 1 0 772.648351,804.690407 z"
       id="path23" />
    <path
       style="stroke:#0000FF;stroke-width:0.01mm;stroke-width:0.01mm;fill:none"
       d="M 383.279102,876.213780 A 5.314961,5.314961 -0.000000 1 0 372.649181,876.213780 5.314961,5.314961 -0.000000 1 0 383.279102,876.213780 z"
       id="path25" />
    <path
       style="stroke:#0000FF;stroke-width:0.01mm;stroke-width:0.01mm;fill:none"
       d="M 98.375939,864.143942 A 5.314961,5.314961 -0.000000 1 0 87.746017,864.143942 5.314961,5.314961 -0.000000 1 0 98.375939,864.143942 z"
       id="path27" />
    <path
       style="stroke:#0000FF;stroke-width:0.01mm;stroke-width:0.01mm;fill:none"
       d="M 641.646142,426.266929 641.646142,705.793811"
       id="path29" />
    <path
       style="stroke:#0000FF;stroke-width:0.01mm;stroke-width:0.01mm;fill:none"
       d="M 70.866142,867.160630 70.866142,426.266929"
       id="path31" />
    <path
       style="stroke:#0000FF;stroke-width:0.01mm;stroke-width:0.01mm;fill:none"
       d="M 95.669291,401.463780 616.842992,401.463780"
       id="path33" />
    <path
       style="stroke:#0000FF;stroke-width:0.01mm;stroke-width:0.01mm;fill:none"
       d="M 655.967762,728.273441 774.350485,783.471500"
       id="path35" />
    <path
       style="stroke:#0000FF;stroke-width:0.01mm;stroke-width:0.01mm;fill:none"
       d="M 786.348278,816.433321 694.348483,1013.729203"
       id="path37" />
    <path
       style="stroke:#0000FF;stroke-width:0.01mm;stroke-width:0.01mm;fill:none"
       d="M 661.388701,1025.727141 379.454920,894.286800"
       id="path39" />
    <path
       style="stroke:#0000FF;stroke-width:0.01mm;stroke-width:0.01mm;fill:none"
       d="M 98.375940,423.658617 A 5.314961,5.314961 -0.000000 1 0 87.746018,423.658617 5.314961,5.314961 -0.000000 1 0 98.375940,423.658617 z"
       id="path41" />
    <path
       style="stroke:#0000FF;stroke-width:0.01mm;stroke-width:0.01mm;fill:none"
       d="M 435.236102,417.213780 A 5.314961,5.314961 -0.000000 1 0 424.606181,417.213780 5.314961,5.314961 -0.000000 1 0 435.236102,417.213780 z"
       id="path43" />
    <path
       style="stroke:#0000FF;stroke-width:0.01mm;stroke-width:0.01mm;fill:none"
       d="M 368.974460,891.963780 95.669291,891.963780"
       id="path45" />
    <path
       style="stroke:#0000FF;stroke-width:0.01mm;stroke-width:0.01mm;fill:none"
       d="M 624.743765,423.658617 A 5.314961,5.314961 -0.000000 1 0 614.113844,423.658617 5.314961,5.314961 -0.000000 1 0 624.743765,423.658617 z"
       id="path47" />
    <path
       style="stroke:#0000FF;stroke-width:0.01mm;stroke-width:0.01mm;fill:none"
       d="M 95.669291,401.463780 A 24.803150,24.803150 -0.000000 0 0 70.866142,426.266929"
       id="path49" />
    <path
       style="stroke:#0000FF;stroke-width:0.01mm;stroke-width:0.01mm;fill:none"
       d="M 641.646142,426.266929 A 24.803150,24.803150 -0.000000 0 0 616.842992,401.463780"
       id="path51" />
    <path
       style="stroke:#0000FF;stroke-width:0.01mm;stroke-width:0.01mm;fill:none"
       d="M 70.866142,867.160630 A 24.803150,24.803150 -0.000000 0 0 95.669291,891.963780"
       id="path53" />
    <path
       style="stroke:#0000FF;stroke-width:0.01mm;stroke-width:0.01mm;fill:none"
       d="M 661.388701,1025.727141 A 24.803150,24.803150 -0.000000 0 0 694.348483,1013.729203"
       id="path55" />
    <path
       style="stroke:#0000FF;stroke-width:0.01mm;stroke-width:0.01mm;fill:none"
       d="M 786.348278,816.433321 A 24.803150,24.803150 -0.000000 0 0 774.350485,783.471500"
       id="path57" />
    <path
       style="stroke:#0000FF;stroke-width:0.01mm;stroke-width:0.01mm;fill:none"
       d="M 641.646142,705.793811 A 24.803150,24.803150 -0.000000 0 0 655.967762,728.273441"
       id="path59" />
    <path
       style="stroke:#0000FF;stroke-width:0.01mm;stroke-width:0.01mm;fill:none"
       d="M 379.454920,894.286800 A 24.803150,24.803150 -0.000000 0 0 368.974460,891.963780"
       id="path61" />
    <path
       style="stroke:#0000FF;stroke-width:0.01mm;stroke-width:0.01mm;fill:none"
       d="M 694.488189,995.669291 694.488189,995.669291"
       id="path63" />
    <path
       style="stroke:#0000FF;stroke-width:0.01mm;stroke-width:0.01mm;fill:none"
       d="M 678.444437,1006.715887 A 5.314961,5.314961 -0.000000 1 0 667.814516,1006.715887 5.314961,5.314961 -0.000000 1 0 678.444437,1006.715887 z"
       id="path65" />
    <path
       style="stroke:#0000FF;stroke-width:0.01mm;stroke-width:0.01mm;fill:none"
       d="M 694.488189,995.669291 694.488189,995.669291"
       id="path67" />
    <path
       style="stroke:#0000FF;stroke-width:0.01mm;stroke-width:0.01mm;fill:none"
       d="M 553.846535,495.764646 A 5.314961,5.314961 -0.000000 1 0 543.216614,495.764646 5.314961,5.314961 -0.000000 1 0 553.846535,495.764646 z"
       id="path69" />
    <path
       style="stroke:#0000FF;stroke-width:0.01mm;stroke-width:0.01mm;fill:none"
       d="M 164.082756,495.764646 A 5.314961,5.314961 -0.000000 1 0 153.452835,495.764646 5.314961,5.314961 -0.000000 1 0 164.082756,495.764646 z"
       id="path71" />
    <path
       style="stroke:#0000FF;stroke-width:0.01mm;stroke-width:0.01mm;fill:none"
       d="M 660.145748,920.961496 A 5.314961,5.314961 -0.000000 1 0 649.515827,920.961496 5.314961,5.314961 -0.000000 1 0 660.145748,920.961496 z"
       id="path73" />
    <g
       style="stroke-width:0.01mm;stroke:#ff0000;fill:none"
       id="text3418">
      <path
         d="m 111.93077,871.67487 0,9.78515 5.44922,0 0,-3.26172 q 0,-0.29297 0.11719,-0.41992 0.11718,-0.12695 0.30273,-0.12695 0.17578,0 0.29297,0.12695 0.11719,0.11719 0.11719,0.41992 l 0,4.08203 -9.0625,0 q -0.29297,0 -0.41992,-0.11718 -0.12696,-0.11719 -0.12696,-0.29297 0,-0.18555 0.12696,-0.29297 0.12695,-0.11719 0.41992,-0.11719 l 1.95312,0 0,-9.78515 -1.95312,0 q -0.29297,0 -0.41992,-0.10743 -0.12696,-0.11718 -0.12696,-0.30273 0,-0.18555 0.12696,-0.29297 0.12695,-0.11719 0.41992,-0.11719 l 4.73633,0 q 0.29296,0 0.41992,0.11719 0.12695,0.10742 0.12695,0.29297 0,0.18555 -0.12695,0.30273 -0.12696,0.10743 -0.41992,0.10743 l -1.95313,0 z"
         style=""
         id="path3372" />
      <path
         d="m 123.08311,870.85455 0,4.01368 q 0.72266,-0.30274 1.38672,-0.44922 0.66407,-0.15625 1.25977,-0.15625 1.54297,0 2.57812,1.08398 1.04493,1.08399 1.04493,2.85156 0,1.95313 -1.17188,3.16407 -1.17187,1.21093 -2.92969,1.21093 -1.16211,0 -2.23632,-0.51757 -0.76172,-0.36133 -1.38672,-0.89844 -0.3711,-0.32227 -0.3711,-0.53711 0,-0.17578 0.11719,-0.29297 0.11719,-0.12695 0.27344,-0.12695 0.16601,0 0.35156,0.17578 1.47461,1.37695 3.21289,1.37695 1.43555,0 2.37305,-0.97656 0.9375,-0.98633 0.9375,-2.61719 0,-1.38672 -0.81055,-2.22656 -0.81055,-0.84961 -2.06055,-0.84961 -1.27929,0 -2.55859,0.67383 -0.3125,0.15625 -0.43945,0.15625 -0.17578,0 -0.28321,-0.11719 -0.10742,-0.11719 -0.10742,-0.33203 l 0,-5.43945 5.72266,0 q 0.29297,0 0.41992,0.11718 0.12695,0.11719 0.12695,0.30274 0,0.17578 -0.12695,0.29297 -0.12695,0.11718 -0.41992,0.11718 l -4.90235,0 z"
         style=""
         id="path3374" />
      <path
         d="m 153.5128,876.0401 0,1.17188 -8.36914,0 0,-1.17188 8.36914,0 z"
         style=""
         id="path3376" />
      <path
         d="m 171.89171,871.67487 0,9.78515 5.44922,0 0,-3.26172 q 0,-0.29297 0.11718,-0.41992 0.11719,-0.12695 0.30274,-0.12695 0.17578,0 0.29297,0.12695 0.11719,0.11719 0.11719,0.41992 l 0,4.08203 -9.0625,0 q -0.29297,0 -0.41993,-0.11718 -0.12695,-0.11719 -0.12695,-0.29297 0,-0.18555 0.12695,-0.29297 0.12696,-0.11719 0.41993,-0.11719 l 1.95312,0 0,-9.78515 -1.95312,0 q -0.29297,0 -0.41993,-0.10743 -0.12695,-0.11718 -0.12695,-0.30273 0,-0.18555 0.12695,-0.29297 0.12696,-0.11719 0.41993,-0.11719 l 4.73632,0 q 0.29297,0 0.41993,0.11719 0.12695,0.10742 0.12695,0.29297 0,0.18555 -0.12695,0.30273 -0.12696,0.10743 -0.41993,0.10743 l -1.95312,0 z"
         style=""
         id="path3378" />
      <path
         d="m 189.74327,878.24713 -8.35937,0 q 0.21484,1.5918 1.32812,2.56836 1.12305,0.9668 2.77344,0.9668 0.91797,0 1.92383,-0.30274 1.00586,-0.30273 1.64062,-0.80078 0.18555,-0.14648 0.32227,-0.14648 0.15625,0 0.27343,0.12695 0.11719,0.11719 0.11719,0.2832 0,0.16602 -0.15625,0.32227 -0.46875,0.48828 -1.66992,0.91797 -1.19141,0.41992 -2.45117,0.41992 -2.10938,0 -3.52539,-1.37695 -1.40625,-1.38672 -1.40625,-3.34961 0,-1.78711 1.31836,-3.06641 1.32812,-1.2793 3.28125,-1.2793 2.01172,0 3.31054,1.31836 1.29883,1.3086 1.2793,3.39844 z m -0.83008,-0.83008 q -0.24414,-1.35742 -1.28906,-2.20703 -1.03516,-0.84961 -2.4707,-0.84961 -1.43555,0 -2.47071,0.83985 -1.03515,0.83984 -1.28906,2.21679 l 7.51953,0 z"
         style=""
         id="path3380" />
      <path
         d="m 196.75499,874.65338 0,6.80664 3.60352,0 q 0.29296,0 0.41992,0.11719 0.12695,0.10742 0.12695,0.29297 0,0.17578 -0.12695,0.29297 -0.12696,0.11718 -0.41992,0.11718 l -6.41602,0 q -0.29297,0 -0.41992,-0.11718 -0.12696,-0.11719 -0.12696,-0.29297 0,-0.18555 0.12696,-0.29297 0.12695,-0.11719 0.41992,-0.11719 l 1.98242,0 0,-6.80664 -1.77734,0 q -0.29297,0 -0.41992,-0.11719 -0.12696,-0.11718 -0.12696,-0.30273 0,-0.17578 0.12696,-0.29297 0.12695,-0.11719 0.41992,-0.11719 l 1.77734,0 0,-1.24023 q 0,-1.03516 0.83985,-1.79688 0.83984,-0.76171 2.22656,-0.76171 1.16211,0 2.48047,0.21484 0.49804,0.0781 0.5957,0.18555 0.10742,0.10742 0.10742,0.2832 0,0.17578 -0.11719,0.29297 -0.11718,0.10742 -0.3125,0.10742 -0.0781,0 -0.26367,-0.0293 -1.47461,-0.22461 -2.49023,-0.22461 -1.07422,0 -1.66016,0.52735 -0.57617,0.52734 -0.57617,1.20117 l 0,1.24023 3.83789,0 q 0.29297,0 0.41992,0.11719 0.12696,0.11719 0.12696,0.30274 0,0.17578 -0.12696,0.29296 -0.12695,0.11719 -0.41992,0.11719 l -3.83789,0 z"
         style=""
         id="path3382" />
      <path
         d="m 207.6046,873.8233 4.45312,0 q 0.29297,0 0.41993,0.11719 0.12695,0.11719 0.12695,0.30274 0,0.17578 -0.12695,0.29296 -0.12696,0.11719 -0.41993,0.11719 l -4.45312,0 0,5.45899 q 0,0.71289 0.56641,1.1914 0.57617,0.47852 1.67968,0.47852 0.83008,0 1.79688,-0.24414 0.96679,-0.25391 1.5039,-0.56641 0.19532,-0.12695 0.32227,-0.12695 0.15625,0 0.27344,0.12695 0.11718,0.11719 0.11718,0.2832 0,0.14649 -0.12695,0.27344 -0.3125,0.32227 -1.52344,0.70313 -1.20117,0.37109 -2.30468,0.37109 -1.43555,0 -2.28516,-0.67383 -0.84961,-0.67383 -0.84961,-1.8164 l 0,-5.45899 -1.51367,0 q -0.29297,0 -0.41992,-0.11719 -0.12696,-0.11718 -0.12696,-0.30273 0,-0.17578 0.12696,-0.29297 0.12695,-0.11719 0.41992,-0.11719 l 1.51367,0 0,-2.42187 q 0,-0.29297 0.11719,-0.41992 0.11719,-0.12696 0.29297,-0.12696 0.18554,0 0.30273,0.12696 0.11719,0.12695 0.11719,0.41992 l 0,2.42187 z"
         style=""
         id="path3384" />
      <path
         d="m 245.68077,870.85455 0,13.13477 1.99219,0 q 0.29297,0 0.41992,0.10742 0.12695,0.11719 0.12695,0.30274 0,0.18554 -0.12695,0.29296 -0.12695,0.11719 -0.41992,0.11719 l -2.8125,0 0,-14.78515 2.8125,0 q 0.29297,0 0.41992,0.11718 0.12695,0.11719 0.12695,0.30274 0,0.17578 -0.12695,0.29297 -0.12695,0.11718 -0.41992,0.11718 l -1.99219,0 z"
         style=""
         id="path3386" />
      <path
         d="m 254.1671,870.02448 0,5.43945 q 1.48437,-1.9336 3.58398,-1.9336 1.79688,0 3.07618,1.3086 1.27929,1.29883 1.27929,3.19336 0,1.91406 -1.29883,3.24219 -1.28906,1.32812 -3.05664,1.32812 -2.14843,0 -3.58398,-1.93359 l 0,1.61132 -1.92383,0 q -0.29297,0 -0.41992,-0.11718 -0.12695,-0.11719 -0.12695,-0.29297 0,-0.18555 0.12695,-0.29297 0.12695,-0.11719 0.41992,-0.11719 l 1.10352,0 0,-10.60547 -1.10352,0 q -0.29297,0 -0.41992,-0.11718 -0.12695,-0.11719 -0.12695,-0.30274 0,-0.17578 0.12695,-0.29297 0.12695,-0.11718 0.41992,-0.11718 l 1.92383,0 z m 7.11914,8.04687 q 0,-1.55273 -1.06445,-2.62695 -1.06446,-1.08399 -2.49024,-1.08399 -1.42578,0 -2.49023,1.08399 -1.06446,1.07422 -1.06446,2.62695 0,1.55273 1.06446,2.63672 1.06445,1.07422 2.49023,1.07422 1.42578,0 2.49024,-1.07422 1.06445,-1.08399 1.06445,-2.63672 z"
         style=""
         id="path3388" />
      <path
         d="m 273.83507,878.07135 q 0,1.875 -1.34766,3.20313 -1.33789,1.32812 -3.23242,1.32812 -1.91406,0 -3.25195,-1.32812 -1.33789,-1.3379 -1.33789,-3.20313 0,-1.875 1.33789,-3.20312 1.33789,-1.3379 3.25195,-1.3379 1.89453,0 3.23242,1.32813 1.34766,1.32812 1.34766,3.21289 z m -0.83008,0 q 0,-1.54297 -1.10352,-2.62695 -1.09375,-1.08399 -2.65625,-1.08399 -1.5625,0 -2.66601,1.09375 -1.09375,1.08399 -1.09375,2.61719 0,1.52344 1.09375,2.61719 1.10351,1.09375 2.66601,1.09375 1.5625,0 2.65625,-1.08399 1.10352,-1.09375 1.10352,-2.62695 z"
         style=""
         id="path3390" />
      <path
         d="m 279.55772,873.8233 4.45313,0 q 0.29297,0 0.41992,0.11719 0.12695,0.11719 0.12695,0.30274 0,0.17578 -0.12695,0.29296 -0.12695,0.11719 -0.41992,0.11719 l -4.45313,0 0,5.45899 q 0,0.71289 0.56641,1.1914 0.57617,0.47852 1.67969,0.47852 0.83008,0 1.79687,-0.24414 0.9668,-0.25391 1.50391,-0.56641 0.19531,-0.12695 0.32226,-0.12695 0.15625,0 0.27344,0.12695 0.11719,0.11719 0.11719,0.2832 0,0.14649 -0.12695,0.27344 -0.3125,0.32227 -1.52344,0.70313 -1.20117,0.37109 -2.30469,0.37109 -1.43555,0 -2.28515,-0.67383 -0.84961,-0.67383 -0.84961,-1.8164 l 0,-5.45899 -1.51368,0 q -0.29296,0 -0.41992,-0.11719 -0.12695,-0.11718 -0.12695,-0.30273 0,-0.17578 0.12695,-0.29297 0.12696,-0.11719 0.41992,-0.11719 l 1.51368,0 0,-2.42187 q 0,-0.29297 0.11718,-0.41992 0.11719,-0.12696 0.29297,-0.12696 0.18555,0 0.30274,0.12696 0.11718,0.12695 0.11718,0.41992 l 0,2.42187 z"
         style=""
         id="path3392" />
      <path
         d="m 291.54991,873.8233 4.45313,0 q 0.29297,0 0.41992,0.11719 0.12695,0.11719 0.12695,0.30274 0,0.17578 -0.12695,0.29296 -0.12695,0.11719 -0.41992,0.11719 l -4.45313,0 0,5.45899 q 0,0.71289 0.56641,1.1914 0.57617,0.47852 1.67969,0.47852 0.83007,0 1.79687,-0.24414 0.9668,-0.25391 1.50391,-0.56641 0.19531,-0.12695 0.32226,-0.12695 0.15625,0 0.27344,0.12695 0.11719,0.11719 0.11719,0.2832 0,0.14649 -0.12696,0.27344 -0.3125,0.32227 -1.52343,0.70313 -1.20118,0.37109 -2.30469,0.37109 -1.43555,0 -2.28516,-0.67383 -0.84961,-0.67383 -0.84961,-1.8164 l 0,-5.45899 -1.51367,0 q -0.29297,0 -0.41992,-0.11719 -0.12695,-0.11718 -0.12695,-0.30273 0,-0.17578 0.12695,-0.29297 0.12695,-0.11719 0.41992,-0.11719 l 1.51367,0 0,-2.42187 q 0,-0.29297 0.11719,-0.41992 0.11719,-0.12696 0.29297,-0.12696 0.18555,0 0.30273,0.12696 0.11719,0.12695 0.11719,0.41992 l 0,2.42187 z"
         style=""
         id="path3394" />
      <path
         d="m 309.81163,878.07135 q 0,1.875 -1.34766,3.20313 -1.33789,1.32812 -3.23242,1.32812 -1.91406,0 -3.25195,-1.32812 -1.33789,-1.3379 -1.33789,-3.20313 0,-1.875 1.33789,-3.20312 1.33789,-1.3379 3.25195,-1.3379 1.89453,0 3.23242,1.32813 1.34766,1.32812 1.34766,3.21289 z m -0.83008,0 q 0,-1.54297 -1.10351,-2.62695 -1.09375,-1.08399 -2.65625,-1.08399 -1.5625,0 -2.66602,1.09375 -1.09375,1.08399 -1.09375,2.61719 0,1.52344 1.09375,2.61719 1.10352,1.09375 2.66602,1.09375 1.5625,0 2.65625,-1.08399 1.10351,-1.09375 1.10351,-2.62695 z"
         style=""
         id="path3396" />
      <path
         d="m 313.48351,873.8233 0,0.83008 q 1.04492,-1.12305 2.0996,-1.12305 0.63477,0 1.11329,0.3418 0.47851,0.33203 0.80078,1.01563 0.54687,-0.6836 1.10351,-1.01563 0.56641,-0.3418 1.13282,-0.3418 0.88867,0 1.41601,0.57618 0.69336,0.74218 0.69336,1.62109 l 0,5.73242 0.69336,0 q 0.29297,0 0.41992,0.11719 0.12695,0.10742 0.12695,0.29297 0,0.17578 -0.12695,0.29297 -0.12695,0.11718 -0.41992,0.11718 l -1.51367,0 0,-6.4746 q 0,-0.625 -0.38086,-1.03516 -0.38086,-0.41016 -0.87891,-0.41016 -0.44922,0 -0.94726,0.3418 -0.49805,0.33203 -1.13282,1.31836 l 0,5.43945 0.6836,0 q 0.29297,0 0.41992,0.11719 0.12695,0.10742 0.12695,0.29297 0,0.17578 -0.12695,0.29297 -0.12695,0.11718 -0.41992,0.11718 l -1.51367,0 0,-6.41601 q 0,-0.6543 -0.39063,-1.07422 -0.38086,-0.42969 -0.85937,-0.42969 -0.43946,0 -0.86914,0.28321 -0.59571,0.40039 -1.25,1.37695 l 0,5.43945 0.69335,0 q 0.29297,0 0.41993,0.11719 0.12695,0.10742 0.12695,0.29297 0,0.17578 -0.12695,0.29297 -0.12696,0.11718 -0.41993,0.11718 l -2.20703,0 q -0.29297,0 -0.41992,-0.11718 -0.12695,-0.11719 -0.12695,-0.29297 0,-0.18555 0.12695,-0.29297 0.12695,-0.11719 0.41992,-0.11719 l 0.69336,0 0,-6.80664 -0.69336,0 q -0.29297,0 -0.41992,-0.11719 -0.12695,-0.11718 -0.12695,-0.30273 0,-0.17578 0.12695,-0.29297 0.12695,-0.11719 0.41992,-0.11719 l 1.51368,0 z"
         style=""
         id="path3398" />
      <path
         d="m 328.8253,883.98932 0,-13.13477 -1.98242,0 q -0.29297,0 -0.41992,-0.11718 -0.12695,-0.11719 -0.12695,-0.29297 0,-0.18555 0.12695,-0.30274 0.12695,-0.11718 0.41992,-0.11718 l 2.8125,0 0,14.78515 -2.8125,0 q -0.29297,0 -0.41992,-0.11719 -0.12695,-0.10742 -0.12695,-0.29296 0,-0.17579 0.12695,-0.29297 0.12695,-0.11719 0.41992,-0.11719 l 1.98242,0 z"
         style=""
         id="path3400" />
    </g>
  </g>
</svg>
