<?xml version="1.0" encoding="UTF-8" standalone="no"?>
<svg
   xmlns:dc="http://purl.org/dc/elements/1.1/"
   xmlns:cc="http://creativecommons.org/ns#"
   xmlns:rdf="http://www.w3.org/1999/02/22-rdf-syntax-ns#"
   xmlns:svg="http://www.w3.org/2000/svg"
   xmlns="http://www.w3.org/2000/svg"
   xmlns:sodipodi="http://sodipodi.sourceforge.net/DTD/sodipodi-0.dtd"
   xmlns:inkscape="http://www.inkscape.org/namespaces/inkscape"
   width="744.094488189"
   height="1052.36220472"
   id="svg2"
   version="1.1"
   inkscape:version="0.91 r13725"
   sodipodi:docname="ErgoDOX Case Layer 4 Spacer - Left.svg">
  <metadata
     id="metadata42">
    <rdf:RDF>
      <cc:Work
         rdf:about="">
        <dc:format>image/svg+xml</dc:format>
        <dc:type
           rdf:resource="http://purl.org/dc/dcmitype/StillImage" />
        <dc:title />
      </cc:Work>
    </rdf:RDF>
  </metadata>
  <sodipodi:namedview
     pagecolor="#ffffff"
     bordercolor="#666666"
     borderopacity="1"
     objecttolerance="10"
     gridtolerance="10"
     guidetolerance="10"
     inkscape:pageopacity="0"
     inkscape:pageshadow="2"
     inkscape:window-width="1858"
     inkscape:window-height="1177"
     id="namedview40"
     showgrid="false"
     inkscape:zoom="1.7940591"
     inkscape:cx="315.71276"
     inkscape:cy="73.853459"
     inkscape:window-x="-8"
     inkscape:window-y="-8"
     inkscape:window-maximized="1"
     inkscape:current-layer="g20" />
  <desc
     id="desc4">C:\Users\forre\OneDrive\Documents\VBOX_SHARE\Ergodox\ErgoDOX Acrylic Case - Designed by Litster\Standard\Left\ErgoDOX Case Layer 4 Spacer - Left.dxf - scale = 1.000000, origin = (0.000000, 0.000000), auto = False</desc>
  <defs
     id="defs6">
    <marker
       refY="0.0"
       refX="0.0"
       style="overflow:visible"
       id="DistanceX"
       orient="auto">
      <path
         style="stroke:#000000; stroke-width:0.01mm"
         d="M 3,-3 L -3,3 M 0,-5 L  0,5"
         id="path9" />
    </marker>
    <pattern
       height="8"
       width="8"
       patternUnits="userSpaceOnUse"
       y="0"
       x="0"
       id="Hatch">
      <path
         linecap="square"
         stroke="#000000"
         stroke-width="0.25"
         d="M8 4 l-4,4"
         id="path12" />
      <path
         linecap="square"
         stroke="#000000"
         stroke-width="0.25"
         d="M6 2 l-4,4"
         id="path14" />
      <path
         linecap="square"
         stroke="#000000"
         stroke-width="0.25"
         d="M4 0 l-4,4"
         id="path16" />
    </pattern>
    <symbol
       id="*Model_Space" />
    <symbol
       id="*Paper_Space" />
  </defs>
  <g
     inkscape:label="0"
     inkscape:groupmode="layer"
     id="g20">
    <path
       style="stroke:#0000FF;stroke-width:0.01mm;stroke-width:0.01mm;fill:none"
       d="M 772.648351,804.690407 A 5.314961,5.314961 -0.000000 1 0 762.018430,804.690407 5.314961,5.314961 -0.000000 1 0 772.648351,804.690407 z"
       id="path22" />
    <path
       style="stroke:#0000FF;stroke-width:0.01mm;stroke-width:0.01mm;fill:none"
       d="M 678.444437,1006.715887 A 5.314961,5.314961 -0.000000 1 0 667.814516,1006.715887 5.314961,5.314961 -0.000000 1 0 678.444437,1006.715887 z"
       id="path24" />
    <path
       style="stroke:#0000FF;stroke-width:0.01mm;stroke-width:0.01mm;fill:none"
       d="M 383.279102,876.213780 A 5.314961,5.314961 -0.000000 1 0 372.649181,876.213780 5.314961,5.314961 -0.000000 1 0 383.279102,876.213780 z"
       id="path26" />
    <path
       style="stroke:#0000FF;stroke-width:0.01mm;stroke-width:0.01mm;fill:none"
       d="M 98.375939,864.143942 A 5.314961,5.314961 -0.000000 1 0 87.746017,864.143942 5.314961,5.314961 -0.000000 1 0 98.375939,864.143942 z"
       id="path28" />
    <path
       style="stroke:#0000FF;stroke-width:0.01mm;stroke-width:0.01mm;fill:none"
       d="M 98.375940,423.658617 A 5.314961,5.314961 -0.000000 1 0 87.746018,423.658617 5.314961,5.314961 -0.000000 1 0 98.375940,423.658617 z"
       id="path30" />
    <path
       style="stroke:#0000FF;stroke-width:0.01mm;stroke-width:0.01mm;fill:none"
       d="M 435.236102,417.213780 A 5.314961,5.314961 -0.000000 1 0 424.606181,417.213780 5.314961,5.314961 -0.000000 1 0 435.236102,417.213780 z"
       id="path32" />
    <path
       style="stroke:#0000FF;stroke-width:0.01mm;stroke-width:0.01mm;fill:none"
       d="M 624.743765,423.658617 A 5.314961,5.314961 -0.000000 1 0 614.113844,423.658617 5.314961,5.314961 -0.000000 1 0 624.743765,423.658617 z"
       id="path34" />
    <path
       style="stroke:#0000FF;stroke-width:0.01mm;stroke-width:0.01mm;fill:none"
       d="M 364.626142,426.663780 L 364.626142,432.963780 L 495.216142,432.963780 L 495.216142,426.663780 L 556.056142,426.663780 L 556.056142,432.963780 L 598.806142,432.963780 L 610.146142,444.213780 L 610.146142,749.763780 L 627.516142,749.763780 L 744.768142,804.438780 L 750.213142,819.387780 L 673.380142,984.159780 L 658.431142,989.595780 L 381.456142,860.463780 L 136.116142,860.463780 L 102.366142,826.713780 L 102.366142,444.213780 L 113.616142,432.963780 L 323.856142,432.963780 L 323.856142,426.663780 L 364.626142,426.663780 z"
       id="path36" />
    <path
       style="stroke:#0000FF;stroke-width:0.01mm;stroke-width:0.01mm;fill:none"
       d="M 641.646142,705.793811 A 24.803150,24.803150 0.0 0 0 655.967762,728.273441 L 774.350485,783.471500 A 24.803150,24.803150 0.0 0 1 786.348278,816.433321 L 694.348483,1013.729203 A 24.803150,24.803150 0.0 0 1 661.388701,1025.727141 L 379.454920,894.286800 A 24.803150,24.803150 0.0 0 0 368.974460,891.963780 L 95.669291,891.963780 A 24.803150,24.803150 0.0 0 1 70.866142,867.160630 L 70.866142,426.266929 A 24.803150,24.803150 0.0 0 1 95.669291,401.463780 L 463.716142,401.463780 L 512.896181,419.580780 L 538.916102,419.580780 L 588.096142,401.463780 L 616.842992,401.463780 A 24.803150,24.803150 0.0 0 1 641.646142,426.266929 L 641.646142,705.793811 z"
       id="path38" />
    <g
       style="stroke-width:0.01mm;stroke:#ff0000;fill:none"
       id="text3418">
      <path
         d="m 111.93077,871.67487 0,9.78515 5.44922,0 0,-3.26172 q 0,-0.29297 0.11719,-0.41992 0.11718,-0.12695 0.30273,-0.12695 0.17578,0 0.29297,0.12695 0.11719,0.11719 0.11719,0.41992 l 0,4.08203 -9.0625,0 q -0.29297,0 -0.41992,-0.11718 -0.12696,-0.11719 -0.12696,-0.29297 0,-0.18555 0.12696,-0.29297 0.12695,-0.11719 0.41992,-0.11719 l 1.95312,0 0,-9.78515 -1.95312,0 q -0.29297,0 -0.41992,-0.10743 -0.12696,-0.11718 -0.12696,-0.30273 0,-0.18555 0.12696,-0.29297 0.12695,-0.11719 0.41992,-0.11719 l 4.73633,0 q 0.29296,0 0.41992,0.11719 0.12695,0.10742 0.12695,0.29297 0,0.18555 -0.12695,0.30273 -0.12696,0.10743 -0.41992,0.10743 l -1.95313,0 z"
         style=""
         id="path3354" />
      <path
         d="m 126.87218,878.8526 -5.43946,0 0,-0.94727 4.56055,-7.88085 1.70899,0 0,8.00781 0.68359,0 q 0.30273,0 0.42969,0.11719 0.12695,0.10742 0.12695,0.29296 0,0.17579 -0.12695,0.29297 -0.12696,0.11719 -0.42969,0.11719 l -0.68359,0 0,2.60742 0.68359,0 q 0.30273,0 0.42969,0.11719 0.12695,0.10742 0.12695,0.29297 0,0.17578 -0.12695,0.29297 -0.12696,0.11718 -0.42969,0.11718 l -3.04688,0 q -0.30273,0 -0.42968,-0.11718 -0.12696,-0.11719 -0.12696,-0.29297 0,-0.18555 0.12696,-0.29297 0.12695,-0.11719 0.42968,-0.11719 l 1.53321,0 0,-2.60742 z m 0,-0.82031 0,-7.17774 -0.42969,0 -4.15039,7.17774 4.58008,0 z"
         style=""
         id="path3356" />
      <path
         d="m 153.5128,876.0401 0,1.17188 -8.36914,0 0,-1.17188 8.36914,0 z"
         style=""
         id="path3358" />
      <path
         d="m 171.89171,871.67487 0,9.78515 5.44922,0 0,-3.26172 q 0,-0.29297 0.11718,-0.41992 0.11719,-0.12695 0.30274,-0.12695 0.17578,0 0.29297,0.12695 0.11719,0.11719 0.11719,0.41992 l 0,4.08203 -9.0625,0 q -0.29297,0 -0.41993,-0.11718 -0.12695,-0.11719 -0.12695,-0.29297 0,-0.18555 0.12695,-0.29297 0.12696,-0.11719 0.41993,-0.11719 l 1.95312,0 0,-9.78515 -1.95312,0 q -0.29297,0 -0.41993,-0.10743 -0.12695,-0.11718 -0.12695,-0.30273 0,-0.18555 0.12695,-0.29297 0.12696,-0.11719 0.41993,-0.11719 l 4.73632,0 q 0.29297,0 0.41993,0.11719 0.12695,0.10742 0.12695,0.29297 0,0.18555 -0.12695,0.30273 -0.12696,0.10743 -0.41993,0.10743 l -1.95312,0 z"
         style=""
         id="path3360" />
      <path
         d="m 189.74327,878.24713 -8.35937,0 q 0.21484,1.5918 1.32812,2.56836 1.12305,0.9668 2.77344,0.9668 0.91797,0 1.92383,-0.30274 1.00586,-0.30273 1.64062,-0.80078 0.18555,-0.14648 0.32227,-0.14648 0.15625,0 0.27343,0.12695 0.11719,0.11719 0.11719,0.2832 0,0.16602 -0.15625,0.32227 -0.46875,0.48828 -1.66992,0.91797 -1.19141,0.41992 -2.45117,0.41992 -2.10938,0 -3.52539,-1.37695 -1.40625,-1.38672 -1.40625,-3.34961 0,-1.78711 1.31836,-3.06641 1.32812,-1.2793 3.28125,-1.2793 2.01172,0 3.31054,1.31836 1.29883,1.3086 1.2793,3.39844 z m -0.83008,-0.83008 q -0.24414,-1.35742 -1.28906,-2.20703 -1.03516,-0.84961 -2.4707,-0.84961 -1.43555,0 -2.47071,0.83985 -1.03515,0.83984 -1.28906,2.21679 l 7.51953,0 z"
         style=""
         id="path3362" />
      <path
         d="m 196.75499,874.65338 0,6.80664 3.60352,0 q 0.29296,0 0.41992,0.11719 0.12695,0.10742 0.12695,0.29297 0,0.17578 -0.12695,0.29297 -0.12696,0.11718 -0.41992,0.11718 l -6.41602,0 q -0.29297,0 -0.41992,-0.11718 -0.12696,-0.11719 -0.12696,-0.29297 0,-0.18555 0.12696,-0.29297 0.12695,-0.11719 0.41992,-0.11719 l 1.98242,0 0,-6.80664 -1.77734,0 q -0.29297,0 -0.41992,-0.11719 -0.12696,-0.11718 -0.12696,-0.30273 0,-0.17578 0.12696,-0.29297 0.12695,-0.11719 0.41992,-0.11719 l 1.77734,0 0,-1.24023 q 0,-1.03516 0.83985,-1.79688 0.83984,-0.76171 2.22656,-0.76171 1.16211,0 2.48047,0.21484 0.49804,0.0781 0.5957,0.18555 0.10742,0.10742 0.10742,0.2832 0,0.17578 -0.11719,0.29297 -0.11718,0.10742 -0.3125,0.10742 -0.0781,0 -0.26367,-0.0293 -1.47461,-0.22461 -2.49023,-0.22461 -1.07422,0 -1.66016,0.52735 -0.57617,0.52734 -0.57617,1.20117 l 0,1.24023 3.83789,0 q 0.29297,0 0.41992,0.11719 0.12696,0.11719 0.12696,0.30274 0,0.17578 -0.12696,0.29296 -0.12695,0.11719 -0.41992,0.11719 l -3.83789,0 z"
         style=""
         id="path3364" />
      <path
         d="m 207.6046,873.8233 4.45312,0 q 0.29297,0 0.41993,0.11719 0.12695,0.11719 0.12695,0.30274 0,0.17578 -0.12695,0.29296 -0.12696,0.11719 -0.41993,0.11719 l -4.45312,0 0,5.45899 q 0,0.71289 0.56641,1.1914 0.57617,0.47852 1.67968,0.47852 0.83008,0 1.79688,-0.24414 0.96679,-0.25391 1.5039,-0.56641 0.19532,-0.12695 0.32227,-0.12695 0.15625,0 0.27344,0.12695 0.11718,0.11719 0.11718,0.2832 0,0.14649 -0.12695,0.27344 -0.3125,0.32227 -1.52344,0.70313 -1.20117,0.37109 -2.30468,0.37109 -1.43555,0 -2.28516,-0.67383 -0.84961,-0.67383 -0.84961,-1.8164 l 0,-5.45899 -1.51367,0 q -0.29297,0 -0.41992,-0.11719 -0.12696,-0.11718 -0.12696,-0.30273 0,-0.17578 0.12696,-0.29297 0.12695,-0.11719 0.41992,-0.11719 l 1.51367,0 0,-2.42187 q 0,-0.29297 0.11719,-0.41992 0.11719,-0.12696 0.29297,-0.12696 0.18554,0 0.30273,0.12696 0.11719,0.12695 0.11719,0.41992 l 0,2.42187 z"
         style=""
         id="path3366" />
      <path
         d="m 245.68077,870.85455 0,13.13477 1.99219,0 q 0.29297,0 0.41992,0.10742 0.12695,0.11719 0.12695,0.30274 0,0.18554 -0.12695,0.29296 -0.12695,0.11719 -0.41992,0.11719 l -2.8125,0 0,-14.78515 2.8125,0 q 0.29297,0 0.41992,0.11718 0.12695,0.11719 0.12695,0.30274 0,0.17578 -0.12695,0.29297 -0.12695,0.11718 -0.41992,0.11718 l -1.99219,0 z"
         style=""
         id="path3368" />
      <path
         d="m 259.96788,874.36041 q 0,-0.2832 0.11719,-0.41015 0.11719,-0.12696 0.29297,-0.12696 0.18554,0 0.30273,0.12696 0.11719,0.12695 0.11719,0.42968 l 0,1.40625 q 0,0.29297 -0.11719,0.41993 -0.11719,0.12695 -0.30273,0.12695 -0.16602,0 -0.28321,-0.10742 -0.10742,-0.10742 -0.12695,-0.35157 -0.0586,-0.58593 -0.60547,-0.96679 -0.80078,-0.54688 -2.11914,-0.54688 -1.37695,0 -2.13867,0.55664 -0.57617,0.41993 -0.57617,0.9375 0,0.58594 0.68359,0.97657 0.46875,0.27343 1.77734,0.41992 1.70899,0.18554 2.37305,0.41992 0.94727,0.3418 1.40625,0.94727 0.46875,0.60546 0.46875,1.30859 0,1.04492 -1.00586,1.86523 -1.00586,0.81055 -2.94922,0.81055 -1.94336,0 -3.18359,-0.98633 0,0.33203 -0.0391,0.42969 -0.0391,0.0977 -0.14649,0.16602 -0.0976,0.0684 -0.22461,0.0684 -0.17578,0 -0.29297,-0.12695 -0.11718,-0.12695 -0.11718,-0.41992 l 0,-1.68945 q 0,-0.29297 0.10742,-0.41993 0.11719,-0.12695 0.30273,-0.12695 0.17578,0 0.29297,0.12695 0.12696,0.11719 0.12696,0.32227 0,0.44922 0.2246,0.75195 0.3418,0.46875 1.08399,0.78125 0.75195,0.30274 1.83594,0.30274 1.60156,0 2.38281,-0.59571 0.78125,-0.5957 0.78125,-1.25976 0,-0.76172 -0.79102,-1.2207 -0.80078,-0.45899 -2.33398,-0.61524 -1.52344,-0.15625 -2.1875,-0.41015 -0.66406,-0.25391 -1.03516,-0.76172 -0.37109,-0.50782 -0.37109,-1.09375 0,-1.05469 1.03516,-1.66993 1.03515,-0.625 2.4707,-0.625 1.69922,0 2.76367,0.83008 z"
         style=""
         id="path3370" />
      <path
         d="m 266.15929,873.8233 0,1.49414 q 0.73242,-0.88867 1.57226,-1.33789 0.83985,-0.44922 1.98242,-0.44922 1.21094,0 2.23633,0.56641 1.02539,0.56641 1.58203,1.58203 0.56641,1.00586 0.56641,2.11914 0,1.76758 -1.26953,3.02735 -1.25977,1.25 -3.10547,1.25 -2.19727,0 -3.56445,-1.78711 l 0,4.9414 1.99218,0 q 0.29297,0 0.41993,0.10743 0.12695,0.11718 0.12695,0.30273 0,0.17578 -0.12695,0.29297 -0.12696,0.11719 -0.41993,0.11719 l -3.91601,0 q -0.29297,0 -0.41992,-0.11719 -0.12696,-0.10742 -0.12696,-0.29297 0,-0.18555 0.12696,-0.30273 0.12695,-0.10743 0.41992,-0.10743 l 1.10351,0 0,-10.57617 -1.10351,0 q -0.29297,0 -0.41992,-0.11719 -0.12696,-0.11718 -0.12696,-0.30273 0,-0.17578 0.12696,-0.29297 0.12695,-0.11719 0.41992,-0.11719 l 1.92383,0 z m 7.10937,3.97461 q 0,-1.41601 -1.03515,-2.42187 -1.0254,-1.01563 -2.50977,-1.01563 -1.49414,0 -2.5293,1.01563 -1.03515,1.01562 -1.03515,2.42187 0,1.41602 1.03515,2.43164 1.03516,1.01563 2.5293,1.01563 1.47461,0 2.50977,-1.00586 1.03515,-1.01563 1.03515,-2.44141 z"
         style=""
         id="path3372" />
      <path
         d="m 283.60069,882.28033 0,-1.18164 q -1.78711,1.50391 -3.81836,1.50391 -1.47461,0 -2.30468,-0.74219 -0.83008,-0.75195 -0.83008,-1.83593 0,-1.19141 1.09375,-2.08008 1.09375,-0.88867 3.19336,-0.88867 0.5664,0 1.23047,0.0781 0.66406,0.0684 1.43554,0.22461 l 0,-1.32813 q 0,-0.67382 -0.625,-1.17187 -0.625,-0.49805 -1.875,-0.49805 -0.95703,0 -2.68554,0.55664 -0.3125,0.0977 -0.40039,0.0977 -0.15625,0 -0.27344,-0.11719 -0.10742,-0.11719 -0.10742,-0.29297 0,-0.16601 0.0977,-0.26367 0.13672,-0.14648 1.10352,-0.40039 1.52344,-0.41016 2.30469,-0.41016 1.55273,0 2.42187,0.77149 0.86914,0.76172 0.86914,1.72851 l 0,5.42969 1.09375,0 q 0.30274,0 0.42969,0.11719 0.12695,0.10742 0.12695,0.29297 0,0.17578 -0.12695,0.29297 -0.12695,0.11718 -0.42969,0.11718 l -1.92383,0 z m 0,-4.08203 q -0.57617,-0.16601 -1.2207,-0.24414 -0.64453,-0.0781 -1.35742,-0.0781 -1.78711,0 -2.79297,0.77148 -0.76172,0.57617 -0.76172,1.37696 0,0.74218 0.57617,1.25 0.58594,0.50781 1.69922,0.50781 1.06445,0 1.97266,-0.41992 0.91797,-0.42969 1.88476,-1.35743 l 0,-1.80664 z"
         style=""
         id="path3374" />
      <path
         d="m 296.65733,874.65338 0,-0.27344 q 0,-0.30273 0.11719,-0.42968 0.11719,-0.12696 0.29297,-0.12696 0.18555,0 0.30273,0.12696 0.11719,0.12695 0.11719,0.42968 l 0,1.85547 q -0.01,0.30274 -0.12695,0.42969 -0.10742,0.12695 -0.29297,0.12695 -0.16602,0 -0.2832,-0.10742 -0.10743,-0.11719 -0.12696,-0.38086 -0.0586,-0.69336 -0.91797,-1.31836 -0.8496,-0.625 -2.29492,-0.625 -1.82617,0 -2.77343,1.14258 -0.94727,1.14258 -0.94727,2.61719 0,1.5918 1.04492,2.62695 1.04492,1.03516 2.70508,1.03516 0.95703,0 1.94336,-0.35156 0.99609,-0.35157 1.79687,-1.13282 0.20508,-0.19531 0.36133,-0.19531 0.16602,0 0.27344,0.11719 0.11719,0.10742 0.11719,0.27344 0,0.41992 -0.98633,1.06445 -1.5918,1.04492 -3.54492,1.04492 -1.98242,0 -3.26172,-1.25977 -1.26953,-1.26953 -1.26953,-3.21289 0,-1.98242 1.29883,-3.29101 1.30859,-1.3086 3.29101,-1.3086 1.88477,0 3.16406,1.12305 z"
         style=""
         id="path3376" />
      <path
         d="m 309.66515,878.24713 -8.35938,0 q 0.21484,1.5918 1.32813,2.56836 1.12304,0.9668 2.77343,0.9668 0.91797,0 1.92383,-0.30274 1.00586,-0.30273 1.64063,-0.80078 0.18554,-0.14648 0.32226,-0.14648 0.15625,0 0.27344,0.12695 0.11719,0.11719 0.11719,0.2832 0,0.16602 -0.15625,0.32227 -0.46875,0.48828 -1.66992,0.91797 -1.19141,0.41992 -2.45118,0.41992 -2.10937,0 -3.52539,-1.37695 -1.40625,-1.38672 -1.40625,-3.34961 0,-1.78711 1.31836,-3.06641 1.32813,-1.2793 3.28125,-1.2793 2.01172,0 3.31055,1.31836 1.29883,1.3086 1.2793,3.39844 z m -0.83008,-0.83008 q -0.24414,-1.35742 -1.28906,-2.20703 -1.03516,-0.84961 -2.47071,-0.84961 -1.43554,0 -2.4707,0.83985 -1.03516,0.83984 -1.28906,2.21679 l 7.51953,0 z"
         style=""
         id="path3378" />
      <path
         d="m 316.23741,873.8233 0,2.07032 q 1.60156,-1.44532 2.39258,-1.85547 0.80078,-0.41992 1.47461,-0.41992 0.73242,0 1.35742,0.49804 0.63477,0.48828 0.63477,0.74219 0,0.18555 -0.12696,0.3125 -0.11718,0.11719 -0.30273,0.11719 -0.0977,0 -0.16602,-0.0293 -0.0684,-0.0391 -0.2539,-0.22461 -0.3418,-0.3418 -0.59571,-0.46875 -0.2539,-0.12695 -0.49804,-0.12695 -0.53711,0 -1.29883,0.42969 -0.75195,0.42968 -2.61719,2.0996 l 0,4.49219 3.63281,0 q 0.30274,0 0.42969,0.11719 0.12695,0.10742 0.12695,0.29297 0,0.17578 -0.12695,0.29297 -0.12695,0.11718 -0.42969,0.11718 l -6.43554,0 q -0.29297,0 -0.41992,-0.10742 -0.12696,-0.11718 -0.12696,-0.29297 0,-0.16601 0.11719,-0.27343 0.12695,-0.11719 0.42969,-0.11719 l 1.98242,0 0,-6.83594 -1.51367,0 q -0.29297,0 -0.41992,-0.11719 -0.12696,-0.11718 -0.12696,-0.30273 0,-0.17578 0.11719,-0.29297 0.12695,-0.11719 0.42969,-0.11719 l 2.33398,0 z"
         style=""
         id="path3380" />
      <path
         d="m 328.8253,883.98932 0,-13.13477 -1.98242,0 q -0.29297,0 -0.41992,-0.11718 -0.12695,-0.11719 -0.12695,-0.29297 0,-0.18555 0.12695,-0.30274 0.12695,-0.11718 0.41992,-0.11718 l 2.8125,0 0,14.78515 -2.8125,0 q -0.29297,0 -0.41992,-0.11719 -0.12695,-0.10742 -0.12695,-0.29296 0,-0.17579 0.12695,-0.29297 0.12695,-0.11719 0.41992,-0.11719 l 1.98242,0 z"
         style=""
         id="path3382" />
    </g>
  </g>
</svg>
