<?xml version="1.0" encoding="UTF-8" standalone="no"?>
<svg
   xmlns:dc="http://purl.org/dc/elements/1.1/"
   xmlns:cc="http://creativecommons.org/ns#"
   xmlns:rdf="http://www.w3.org/1999/02/22-rdf-syntax-ns#"
   xmlns:svg="http://www.w3.org/2000/svg"
   xmlns="http://www.w3.org/2000/svg"
   xmlns:sodipodi="http://sodipodi.sourceforge.net/DTD/sodipodi-0.dtd"
   xmlns:inkscape="http://www.inkscape.org/namespaces/inkscape"
   width="744.094488189"
   height="1052.36220472"
   id="svg4732"
   version="1.1"
   inkscape:version="0.91 r13725"
   sodipodi:docname="ErgoDOX Case Layer 5 Bottom - Right.svg">
  <metadata
     id="metadata4853">
    <rdf:RDF>
      <cc:Work
         rdf:about="">
        <dc:format>image/svg+xml</dc:format>
        <dc:type
           rdf:resource="http://purl.org/dc/dcmitype/StillImage" />
        <dc:title />
      </cc:Work>
    </rdf:RDF>
  </metadata>
  <sodipodi:namedview
     pagecolor="#ffffff"
     bordercolor="#666666"
     borderopacity="1"
     objecttolerance="10"
     gridtolerance="10"
     guidetolerance="10"
     inkscape:pageopacity="0"
     inkscape:pageshadow="2"
     inkscape:window-width="1858"
     inkscape:window-height="1177"
     id="namedview4851"
     showgrid="false"
     inkscape:zoom="0.89702957"
     inkscape:cx="851.68566"
     inkscape:cy="208.65941"
     inkscape:window-x="-8"
     inkscape:window-y="-8"
     inkscape:window-maximized="1"
     inkscape:current-layer="svg4732" />
  <desc
     id="desc4734">C:\Users\forre\OneDrive\Documents\VBOX_SHARE\Ergodox\ErgoDOX Acrylic Case - Designed by Litster\Standard\Right\ErgoDOX Case Layer 5 Bottom - Right.dxf - scale = 1.000000, origin = (0.000000, 0.000000), auto = False</desc>
  <defs
     id="defs4736">
    <marker
       refY="0.0"
       refX="0.0"
       style="overflow:visible"
       id="DistanceX"
       orient="auto">
      <path
         style="stroke:#000000; stroke-width:0.01mm"
         d="M 3,-3 L -3,3 M 0,-5 L  0,5"
         id="path4739" />
    </marker>
    <pattern
       height="8"
       width="8"
       patternUnits="userSpaceOnUse"
       y="0"
       x="0"
       id="Hatch">
      <path
         linecap="square"
         stroke="#000000"
         stroke-width="0.25"
         d="M8 4 l-4,4"
         id="path4742" />
      <path
         linecap="square"
         stroke="#000000"
         stroke-width="0.25"
         d="M6 2 l-4,4"
         id="path4744" />
      <path
         linecap="square"
         stroke="#000000"
         stroke-width="0.25"
         d="M4 0 l-4,4"
         id="path4746" />
    </pattern>
    <symbol
       id="*Model_Space" />
    <symbol
       id="*Paper_Space" />
    <symbol
       id="*Paper_Space0" />
  </defs>
  <g
     inkscape:label="0"
     inkscape:groupmode="layer"
     id="g4751">
    <path
       style="stroke:#0000FF;stroke-width:0.01mm;stroke-width:0.01mm;fill:none"
       d="M 45.647864,806.101746 137.647658,1003.397628"
       id="path4753" />
    <path
       style="stroke:#0000FF;stroke-width:0.01mm;stroke-width:0.01mm;fill:none"
       d="M 170.607441,1015.395566 452.541223,883.955225"
       id="path4755" />
    <path
       style="stroke:#0000FF;stroke-width:0.01mm;stroke-width:0.01mm;fill:none"
       d="M 744.250123,413.327042 A 5.314961,5.314961 -0.000000 1 0 733.620202,413.327042 5.314961,5.314961 -0.000000 1 0 744.250123,413.327042 z"
       id="path4757" />
    <path
       style="stroke:#0000FF;stroke-width:0.01mm;stroke-width:0.01mm;fill:none"
       d="M 407.389961,406.882205 A 5.314961,5.314961 -0.000000 1 0 396.760039,406.882205 5.314961,5.314961 -0.000000 1 0 407.389961,406.882205 z"
       id="path4759" />
    <path
       style="stroke:#0000FF;stroke-width:0.01mm;stroke-width:0.01mm;fill:none"
       d="M 463.021682,881.632205 736.326850,881.632205"
       id="path4761" />
    <path
       style="stroke:#0000FF;stroke-width:0.01mm;stroke-width:0.01mm;fill:none"
       d="M 217.882298,413.327042 A 5.314961,5.314961 -0.000000 1 0 207.252377,413.327042 5.314961,5.314961 -0.000000 1 0 217.882298,413.327042 z"
       id="path4763" />
    <path
       style="stroke:#0000FF;stroke-width:0.01mm;stroke-width:0.01mm;fill:none"
       d="M 761.130000,415.935354 A 24.803150,24.803150 -0.000000 0 0 736.326850,391.132205"
       id="path4765" />
    <path
       style="stroke:#0000FF;stroke-width:0.01mm;stroke-width:0.01mm;fill:none"
       d="M 215.153150,391.132205 A 24.803150,24.803150 -0.000000 0 0 190.350000,415.935354"
       id="path4767" />
    <path
       style="stroke:#0000FF;stroke-width:0.01mm;stroke-width:0.01mm;fill:none"
       d="M 736.326850,881.632205 A 24.803150,24.803150 -0.000000 0 0 761.130000,856.829055"
       id="path4769" />
    <path
       style="stroke:#0000FF;stroke-width:0.01mm;stroke-width:0.01mm;fill:none"
       d="M 137.647658,1003.397628 A 24.803150,24.803150 -0.000000 0 0 170.607441,1015.395566"
       id="path4771" />
    <path
       style="stroke:#0000FF;stroke-width:0.01mm;stroke-width:0.01mm;fill:none"
       d="M 57.645657,773.139925 A 24.803150,24.803150 -0.000000 0 0 45.647864,806.101746"
       id="path4773" />
    <path
       style="stroke:#0000FF;stroke-width:0.01mm;stroke-width:0.01mm;fill:none"
       d="M 69.977712,794.358832 A 5.314961,5.314961 -0.000000 1 0 59.347790,794.358832 5.314961,5.314961 -0.000000 1 0 69.977712,794.358832 z"
       id="path4775" />
    <path
       style="stroke:#0000FF;stroke-width:0.01mm;stroke-width:0.01mm;fill:none"
       d="M 176.028380,717.941866 A 24.803150,24.803150 -0.000000 0 0 190.350000,695.462236"
       id="path4777" />
    <path
       style="stroke:#0000FF;stroke-width:0.01mm;stroke-width:0.01mm;fill:none"
       d="M 463.021682,881.632205 A 24.803150,24.803150 -0.000000 0 0 452.541222,883.955226"
       id="path4779" />
    <path
       style="stroke:#0000FF;stroke-width:0.01mm;stroke-width:0.01mm;fill:none"
       d="M 164.181626,996.384312 A 5.314961,5.314961 -0.000000 1 0 153.551705,996.384312 5.314961,5.314961 -0.000000 1 0 164.181626,996.384312 z"
       id="path4781" />
    <path
       style="stroke:#0000FF;stroke-width:0.01mm;stroke-width:0.01mm;fill:none"
       d="M 459.346961,865.882205 A 5.314961,5.314961 -0.000000 1 0 448.717039,865.882205 5.314961,5.314961 -0.000000 1 0 459.346961,865.882205 z"
       id="path4783" />
    <path
       style="stroke:#0000FF;stroke-width:0.01mm;stroke-width:0.01mm;fill:none"
       d="M 744.250124,853.812368 A 5.314961,5.314961 -0.000000 1 0 733.620203,853.812368 5.314961,5.314961 -0.000000 1 0 744.250124,853.812368 z"
       id="path4785" />
    <path
       style="stroke:#0000FF;stroke-width:0.01mm;stroke-width:0.01mm;fill:none"
       d="M 137.507953,985.337717 137.507953,985.337717"
       id="path4787" />
    <path
       style="stroke:#0000FF;stroke-width:0.01mm;stroke-width:0.01mm;fill:none"
       d="M 190.350000,415.935354 190.350000,695.462236"
       id="path4789" />
    <path
       style="stroke:#0000FF;stroke-width:0.01mm;stroke-width:0.01mm;fill:none"
       d="M 761.130000,856.829055 761.130000,415.935354"
       id="path4791" />
    <path
       style="stroke:#0000FF;stroke-width:0.01mm;stroke-width:0.01mm;fill:none"
       d="M 736.326850,391.132205 215.153150,391.132205"
       id="path4793" />
    <path
       style="stroke:#0000FF;stroke-width:0.01mm;stroke-width:0.01mm;fill:none"
       d="M 176.028380,717.941866 57.645657,773.139925"
       id="path4795" />
    <path
       style="stroke:#0000FF;stroke-width:0.01mm;stroke-width:0.01mm;fill:none"
       d="M 288.779528,485.433071 A 5.314961,5.314961 -0.000000 1 0 278.149606,485.433071 5.314961,5.314961 -0.000000 1 0 288.779528,485.433071 z"
       id="path4797" />
    <path
       style="stroke:#0000FF;stroke-width:0.01mm;stroke-width:0.01mm;fill:none"
       d="M 678.543307,485.433071 A 5.314961,5.314961 -0.000000 1 0 667.913386,485.433071 5.314961,5.314961 -0.000000 1 0 678.543307,485.433071 z"
       id="path4799" />
    <path
       style="stroke:#0000FF;stroke-width:0.01mm;stroke-width:0.01mm;fill:none"
       d="M 182.480315,910.629921 A 5.314961,5.314961 -0.000000 1 0 171.850394,910.629921 5.314961,5.314961 -0.000000 1 0 182.480315,910.629921 z"
       id="path4801" />
  </g>
  <g
     inkscape:label="GREEN"
     inkscape:groupmode="layer"
     id="g4803" />
  <g
     inkscape:label="CYAN"
     inkscape:groupmode="layer"
     id="g4805" />
  <g
     inkscape:label="RED"
     inkscape:groupmode="layer"
     id="g4807" />
  <g
     inkscape:label="MAGENTA"
     inkscape:groupmode="layer"
     id="g4809" />
  <g
     inkscape:label="BROWN"
     inkscape:groupmode="layer"
     id="g4811" />
  <g
     inkscape:label="GRAY"
     inkscape:groupmode="layer"
     id="g4813" />
  <g
     inkscape:label="DARKGRAY"
     inkscape:groupmode="layer"
     id="g4815" />
  <g
     inkscape:label="LIGHTBLUE"
     inkscape:groupmode="layer"
     id="g4817" />
  <g
     inkscape:label="LIGHTGREEN"
     inkscape:groupmode="layer"
     id="g4819" />
  <g
     inkscape:label="LIGHTCYAN"
     inkscape:groupmode="layer"
     id="g4821" />
  <g
     inkscape:label="LIGHTRED"
     inkscape:groupmode="layer"
     id="g4823" />
  <g
     inkscape:label="LIGHTMAGENTA"
     inkscape:groupmode="layer"
     id="g4825" />
  <g
     inkscape:label="YELLOW"
     inkscape:groupmode="layer"
     id="g4827" />
  <g
     inkscape:label="WHITE"
     inkscape:groupmode="layer"
     id="g4829" />
  <g
     inkscape:label="DARKDARKGRAY"
     inkscape:groupmode="layer"
     id="g4831" />
  <g
     inkscape:label="DARKBLUE"
     inkscape:groupmode="layer"
     id="g4833" />
  <g
     inkscape:label="DARKGREEN"
     inkscape:groupmode="layer"
     id="g4835" />
  <g
     inkscape:label="DARKCYAN"
     inkscape:groupmode="layer"
     id="g4837" />
  <g
     inkscape:label="DARKRED"
     inkscape:groupmode="layer"
     id="g4839" />
  <g
     inkscape:label="DARKMAGENTA"
     inkscape:groupmode="layer"
     id="g4841" />
  <g
     inkscape:label="DARKBROWN"
     inkscape:groupmode="layer"
     id="g4843" />
  <g
     inkscape:label="LIGHTYELLOW"
     inkscape:groupmode="layer"
     id="g4845" />
  <g
     inkscape:label="BLACK"
     inkscape:groupmode="layer"
     id="g4847" />
  <g
     inkscape:label="BLUE"
     inkscape:groupmode="layer"
     id="g4849" />
  <g
     style="stroke-width:0.01mm;stroke:#ff0000;fill:none"
     id="text3420">
    <path
       d="m 474.37613,859.0202 0,9.78516 5.44922,0 0,-3.26172 q 0,-0.29297 0.11719,-0.41992 0.11718,-0.12695 0.30273,-0.12695 0.17578,0 0.29297,0.12695 0.11719,0.11719 0.11719,0.41992 l 0,4.08203 -9.0625,0 q -0.29297,0 -0.41993,-0.11719 -0.12695,-0.11718 -0.12695,-0.29296 0,-0.18555 0.12695,-0.29297 0.12696,-0.11719 0.41993,-0.11719 l 1.95312,0 0,-9.78516 -1.95312,0 q -0.29297,0 -0.41993,-0.10742 -0.12695,-0.11719 -0.12695,-0.30273 0,-0.18555 0.12695,-0.29297 0.12696,-0.11719 0.41993,-0.11719 l 4.73632,0 q 0.29297,0 0.41993,0.11719 0.12695,0.10742 0.12695,0.29297 0,0.18554 -0.12695,0.30273 -0.12696,0.10742 -0.41993,0.10742 l -1.95312,0 z"
       style=""
       id="path3395" />
    <path
       d="m 485.52847,858.19989 0,4.01367 q 0.72266,-0.30273 1.38672,-0.44922 0.66406,-0.15625 1.25977,-0.15625 1.54297,0 2.57812,1.08399 1.04492,1.08398 1.04492,2.85156 0,1.95313 -1.17187,3.16406 -1.17188,1.21094 -2.92969,1.21094 -1.16211,0 -2.23633,-0.51758 -0.76172,-0.36133 -1.38672,-0.89844 -0.37109,-0.32226 -0.37109,-0.5371 0,-0.17579 0.11719,-0.29297 0.11719,-0.12696 0.27344,-0.12696 0.16601,0 0.35156,0.17578 1.47461,1.37696 3.21289,1.37696 1.43555,0 2.37305,-0.97656 0.9375,-0.98633 0.9375,-2.61719 0,-1.38672 -0.81055,-2.22656 -0.81055,-0.84961 -2.06055,-0.84961 -1.27929,0 -2.55859,0.67382 -0.3125,0.15625 -0.43945,0.15625 -0.17579,0 -0.28321,-0.11718 -0.10742,-0.11719 -0.10742,-0.33203 l 0,-5.43946 5.72266,0 q 0.29297,0 0.41992,0.11719 0.12695,0.11719 0.12695,0.30273 0,0.17579 -0.12695,0.29297 -0.12695,0.11719 -0.41992,0.11719 l -4.90235,0 z"
       style=""
       id="path3397" />
    <path
       d="m 515.95816,863.38544 0,1.17187 -8.36914,0 0,-1.17187 8.36914,0 z"
       style=""
       id="path3399" />
    <path
       d="m 533.08707,864.52802 0,4.27734 1.51367,0 q 0.30273,0 0.42969,0.11719 0.12695,0.10742 0.12695,0.29297 0,0.17578 -0.12695,0.29296 -0.12696,0.11719 -0.42969,0.11719 l -3.4375,0 q -0.29297,0 -0.41992,-0.11719 -0.12696,-0.11718 -0.12696,-0.29296 0,-0.18555 0.12696,-0.29297 0.12695,-0.11719 0.41992,-0.11719 l 1.10351,0 0,-9.78516 -1.10351,0 q -0.29297,0 -0.41992,-0.10742 -0.12696,-0.11719 -0.12696,-0.30273 0,-0.18555 0.12696,-0.29297 0.12695,-0.11719 0.41992,-0.11719 l 4.96094,0 q 1.5332,0 2.57812,0.97656 1.05469,0.9668 1.05469,2.1875 0,0.87891 -0.6543,1.66016 -0.64453,0.77148 -2.16797,1.28906 0.87891,0.60547 1.50391,1.36719 0.625,0.76172 2.00195,3.125 l 0.625,0 q 0.29297,0 0.41992,0.11719 0.12696,0.10742 0.12696,0.29297 0,0.17578 -0.12696,0.29296 -0.12695,0.11719 -0.41992,0.11719 l -1.09375,0 q -1.52344,-2.72461 -2.36328,-3.65234 -0.83008,-0.92774 -1.91406,-1.44531 l -2.60742,0 z m 0,-0.82032 2.23632,0 q 1.07422,0 1.94336,-0.39062 0.87891,-0.39063 1.26954,-0.91797 0.40039,-0.52734 0.40039,-1.07422 0,-0.82031 -0.83008,-1.5625 -0.82031,-0.74219 -2.00196,-0.74219 l -3.01757,0 0,4.6875 z"
       style=""
       id="path3401" />
    <path
       d="m 548.15543,856.95966 0,2.11914 -1.21094,0 0,-2.11914 1.21094,0 z m 0.0293,4.20898 0,7.63672 3.22266,0 q 0.30273,0 0.42969,0.11719 0.12695,0.10742 0.12695,0.29297 0,0.17578 -0.12695,0.29296 -0.12696,0.11719 -0.42969,0.11719 l -7.26563,0 q -0.29296,0 -0.41992,-0.11719 -0.12695,-0.11718 -0.12695,-0.29296 0,-0.18555 0.12695,-0.29297 0.12696,-0.11719 0.41992,-0.11719 l 3.22266,0 0,-6.80664 -2.39258,0 q -0.29297,0 -0.42969,-0.11719 -0.12695,-0.11719 -0.12695,-0.29297 0,-0.18554 0.12695,-0.30273 0.12696,-0.11719 0.42969,-0.11719 l 3.21289,0 z"
       style=""
       id="path3403" />
    <path
       d="m 562.50113,862.67255 0,-1.50391 1.92383,0 q 0.29297,0 0.41992,0.11719 0.12695,0.11719 0.12695,0.30273 0,0.17578 -0.12695,0.29297 -0.12695,0.11719 -0.41992,0.11719 l -1.10352,0 0,8.19336 q 0,0.82031 -0.35156,1.46484 -0.23438,0.42969 -0.78125,0.88867 -0.54688,0.45899 -0.99609,0.6543 -0.44922,0.19531 -1.20118,0.19531 l -2.32422,0 q -0.29296,0 -0.41992,-0.11718 -0.12695,-0.10743 -0.12695,-0.29297 0,-0.18555 0.12695,-0.30274 0.12696,-0.11719 0.41992,-0.11719 l 2.35352,0.01 q 0.72266,0 1.29883,-0.37109 0.58594,-0.3711 0.9668,-1.08399 0.21484,-0.41015 0.21484,-1.04492 l 0,-2.46094 q -1.31836,1.80664 -3.39844,1.80664 -1.68945,0 -2.91992,-1.25 -1.2207,-1.25976 -1.2207,-3.02734 0,-1.76758 1.2207,-3.01758 1.23047,-1.25 2.91992,-1.25 2.08008,0 3.39844,1.79688 z m 0,2.4707 q 0,-1.44531 -0.99609,-2.44141 -0.98633,-0.99609 -2.36329,-0.99609 -1.37695,0 -2.36328,1.00586 -0.98633,0.99609 -0.98633,2.43164 0,1.44531 0.98633,2.45117 0.98633,0.9961 2.36328,0.9961 1.37696,0 2.36329,-0.9961 0.99609,-1.00586 0.99609,-2.45117 z"
       style=""
       id="path3405" />
    <path
       d="m 569.03433,857.36981 0,5.04883 q 0.78125,-0.84961 1.49414,-1.19141 0.72266,-0.35156 1.61133,-0.35156 0.95703,0 1.62109,0.3418 0.67383,0.33203 1.12305,1.03515 0.44922,0.69336 0.44922,1.46485 l 0,5.08789 0.91797,0 q 0.30273,0 0.41992,0.11719 0.12695,0.10742 0.12695,0.29297 0,0.17578 -0.12695,0.29296 -0.11719,0.11719 -0.41992,0.11719 l -2.66602,0 q -0.30273,0 -0.42968,-0.11719 -0.12696,-0.11718 -0.12696,-0.29296 0,-0.18555 0.12696,-0.29297 0.12695,-0.11719 0.42968,-0.11719 l 0.91797,0 0,-5.0293 q 0,-0.88867 -0.64453,-1.48437 -0.63476,-0.59571 -1.77734,-0.59571 -0.89844,0 -1.53321,0.43946 -0.45898,0.3125 -1.51367,1.47461 l 0,5.19531 0.92774,0 q 0.29297,0 0.41992,0.11719 0.12695,0.10742 0.12695,0.29297 0,0.17578 -0.12695,0.29296 -0.12695,0.11719 -0.41992,0.11719 l -2.67578,0 q -0.29297,0 -0.41993,-0.11719 -0.12695,-0.11718 -0.12695,-0.29296 0,-0.18555 0.12695,-0.29297 0.12696,-0.11719 0.41993,-0.11719 l 0.92773,0 0,-10.60547 -1.10352,0 q -0.29296,0 -0.41992,-0.11719 -0.12695,-0.11718 -0.12695,-0.30273 0,-0.17578 0.12695,-0.29297 0.12696,-0.11719 0.41992,-0.11719 l 1.92383,0 z"
       style=""
       id="path3407" />
    <path
       d="m 582.04214,861.16864 4.45313,0 q 0.29297,0 0.41992,0.11719 0.12695,0.11719 0.12695,0.30273 0,0.17578 -0.12695,0.29297 -0.12695,0.11719 -0.41992,0.11719 l -4.45313,0 0,5.45898 q 0,0.71289 0.56641,1.19141 0.57617,0.47851 1.67969,0.47851 0.83008,0 1.79687,-0.24414 0.9668,-0.2539 1.50391,-0.5664 0.19531,-0.12696 0.32227,-0.12696 0.15625,0 0.27343,0.12696 0.11719,0.11719 0.11719,0.2832 0,0.14649 -0.12695,0.27344 -0.3125,0.32226 -1.52344,0.70312 -1.20117,0.3711 -2.30469,0.3711 -1.43554,0 -2.28515,-0.67383 -0.84961,-0.67383 -0.84961,-1.81641 l 0,-5.45898 -1.51368,0 q -0.29296,0 -0.41992,-0.11719 -0.12695,-0.11719 -0.12695,-0.30273 0,-0.17578 0.12695,-0.29297 0.12696,-0.11719 0.41992,-0.11719 l 1.51368,0 0,-2.42187 q 0,-0.29297 0.11718,-0.41993 0.11719,-0.12695 0.29297,-0.12695 0.18555,0 0.30274,0.12695 0.11718,0.12696 0.11718,0.41993 l 0,2.42187 z"
       style=""
       id="path3409" />
    <path
       d="m 608.12613,858.19989 0,13.13477 1.99219,0 q 0.29297,0 0.41992,0.10742 0.12695,0.11719 0.12695,0.30273 0,0.18555 -0.12695,0.29297 -0.12695,0.11719 -0.41992,0.11719 l -2.8125,0 0,-14.78516 2.8125,0 q 0.29297,0 0.41992,0.11719 0.12695,0.11719 0.12695,0.30273 0,0.17579 -0.12695,0.29297 -0.12695,0.11719 -0.41992,0.11719 l -1.99219,0 z"
       style=""
       id="path3411" />
    <path
       d="m 616.61246,857.36981 0,5.43946 q 1.48437,-1.9336 3.58398,-1.9336 1.79688,0 3.07617,1.3086 1.2793,1.29882 1.2793,3.19335 0,1.91407 -1.29883,3.24219 -1.28906,1.32813 -3.05664,1.32813 -2.14844,0 -3.58398,-1.9336 l 0,1.61133 -1.92383,0 q -0.29297,0 -0.41992,-0.11719 -0.12696,-0.11718 -0.12696,-0.29296 0,-0.18555 0.12696,-0.29297 0.12695,-0.11719 0.41992,-0.11719 l 1.10351,0 0,-10.60547 -1.10351,0 q -0.29297,0 -0.41992,-0.11719 -0.12696,-0.11718 -0.12696,-0.30273 0,-0.17578 0.12696,-0.29297 0.12695,-0.11719 0.41992,-0.11719 l 1.92383,0 z m 7.11914,8.04688 q 0,-1.55274 -1.06446,-2.62696 -1.06445,-1.08398 -2.49023,-1.08398 -1.42578,0 -2.49023,1.08398 -1.06446,1.07422 -1.06446,2.62696 0,1.55273 1.06446,2.63672 1.06445,1.07421 2.49023,1.07421 1.42578,0 2.49023,-1.07421 1.06446,-1.08399 1.06446,-2.63672 z"
       style=""
       id="path3413" />
    <path
       d="m 636.28043,865.41669 q 0,1.875 -1.34766,3.20312 -1.33789,1.32813 -3.23242,1.32813 -1.91406,0 -3.25196,-1.32813 -1.33789,-1.33789 -1.33789,-3.20312 0,-1.875 1.33789,-3.20313 1.3379,-1.33789 3.25196,-1.33789 1.89453,0 3.23242,1.32813 1.34766,1.32812 1.34766,3.21289 z m -0.83008,0 q 0,-1.54297 -1.10352,-2.62696 -1.09375,-1.08398 -2.65625,-1.08398 -1.5625,0 -2.66601,1.09375 -1.09375,1.08398 -1.09375,2.61719 0,1.52343 1.09375,2.61718 1.10351,1.09375 2.66601,1.09375 1.5625,0 2.65625,-1.08398 1.10352,-1.09375 1.10352,-2.62695 z"
       style=""
       id="path3415" />
    <path
       d="m 642.00308,861.16864 4.45313,0 q 0.29297,0 0.41992,0.11719 0.12695,0.11719 0.12695,0.30273 0,0.17578 -0.12695,0.29297 -0.12695,0.11719 -0.41992,0.11719 l -4.45313,0 0,5.45898 q 0,0.71289 0.56641,1.19141 0.57617,0.47851 1.67969,0.47851 0.83007,0 1.79687,-0.24414 0.9668,-0.2539 1.50391,-0.5664 0.19531,-0.12696 0.32226,-0.12696 0.15625,0 0.27344,0.12696 0.11719,0.11719 0.11719,0.2832 0,0.14649 -0.12696,0.27344 -0.3125,0.32226 -1.52343,0.70312 -1.20117,0.3711 -2.30469,0.3711 -1.43555,0 -2.28516,-0.67383 -0.84961,-0.67383 -0.84961,-1.81641 l 0,-5.45898 -1.51367,0 q -0.29297,0 -0.41992,-0.11719 -0.12695,-0.11719 -0.12695,-0.30273 0,-0.17578 0.12695,-0.29297 0.12695,-0.11719 0.41992,-0.11719 l 1.51367,0 0,-2.42187 q 0,-0.29297 0.11719,-0.41993 0.11719,-0.12695 0.29297,-0.12695 0.18555,0 0.30273,0.12695 0.11719,0.12696 0.11719,0.41993 l 0,2.42187 z"
       style=""
       id="path3417" />
    <path
       d="m 653.99527,861.16864 4.45312,0 q 0.29297,0 0.41993,0.11719 0.12695,0.11719 0.12695,0.30273 0,0.17578 -0.12695,0.29297 -0.12696,0.11719 -0.41993,0.11719 l -4.45312,0 0,5.45898 q 0,0.71289 0.56641,1.19141 0.57617,0.47851 1.67968,0.47851 0.83008,0 1.79688,-0.24414 0.9668,-0.2539 1.5039,-0.5664 0.19532,-0.12696 0.32227,-0.12696 0.15625,0 0.27344,0.12696 0.11719,0.11719 0.11719,0.2832 0,0.14649 -0.12696,0.27344 -0.3125,0.32226 -1.52344,0.70312 -1.20117,0.3711 -2.30468,0.3711 -1.43555,0 -2.28516,-0.67383 -0.84961,-0.67383 -0.84961,-1.81641 l 0,-5.45898 -1.51367,0 q -0.29297,0 -0.41992,-0.11719 -0.12696,-0.11719 -0.12696,-0.30273 0,-0.17578 0.12696,-0.29297 0.12695,-0.11719 0.41992,-0.11719 l 1.51367,0 0,-2.42187 q 0,-0.29297 0.11719,-0.41993 0.11719,-0.12695 0.29297,-0.12695 0.18554,0 0.30273,0.12695 0.11719,0.12696 0.11719,0.41993 l 0,2.42187 z"
       style=""
       id="path3419" />
    <path
       d="m 672.25699,865.41669 q 0,1.875 -1.34766,3.20312 -1.33789,1.32813 -3.23242,1.32813 -1.91406,0 -3.25195,-1.32813 -1.33789,-1.33789 -1.33789,-3.20312 0,-1.875 1.33789,-3.20313 1.33789,-1.33789 3.25195,-1.33789 1.89453,0 3.23242,1.32813 1.34766,1.32812 1.34766,3.21289 z m -0.83008,0 q 0,-1.54297 -1.10352,-2.62696 -1.09375,-1.08398 -2.65625,-1.08398 -1.5625,0 -2.66601,1.09375 -1.09375,1.08398 -1.09375,2.61719 0,1.52343 1.09375,2.61718 1.10351,1.09375 2.66601,1.09375 1.5625,0 2.65625,-1.08398 1.10352,-1.09375 1.10352,-2.62695 z"
       style=""
       id="path3421" />
    <path
       d="m 675.92886,861.16864 0,0.83008 q 1.04493,-1.12305 2.09961,-1.12305 0.63477,0 1.11328,0.3418 0.47852,0.33203 0.80079,1.01562 0.54687,-0.68359 1.10351,-1.01562 0.56641,-0.3418 1.13281,-0.3418 0.88868,0 1.41602,0.57617 0.69336,0.74219 0.69336,1.6211 l 0,5.73242 0.69336,0 q 0.29297,0 0.41992,0.11719 0.12695,0.10742 0.12695,0.29297 0,0.17578 -0.12695,0.29296 -0.12695,0.11719 -0.41992,0.11719 l -1.51367,0 0,-6.47461 q 0,-0.625 -0.38086,-1.03515 -0.38086,-0.41016 -0.87891,-0.41016 -0.44922,0 -0.94727,0.3418 -0.49804,0.33203 -1.13281,1.31836 l 0,5.43945 0.6836,0 q 0.29296,0 0.41992,0.11719 0.12695,0.10742 0.12695,0.29297 0,0.17578 -0.12695,0.29296 -0.12696,0.11719 -0.41992,0.11719 l -1.51368,0 0,-6.41601 q 0,-0.6543 -0.39062,-1.07422 -0.38086,-0.42969 -0.85938,-0.42969 -0.43945,0 -0.86914,0.2832 -0.5957,0.40039 -1.25,1.37696 l 0,5.43945 0.69336,0 q 0.29297,0 0.41992,0.11719 0.12696,0.10742 0.12696,0.29297 0,0.17578 -0.12696,0.29296 -0.12695,0.11719 -0.41992,0.11719 l -2.20703,0 q -0.29297,0 -0.41992,-0.11719 -0.12695,-0.11718 -0.12695,-0.29296 0,-0.18555 0.12695,-0.29297 0.12695,-0.11719 0.41992,-0.11719 l 0.69336,0 0,-6.80664 -0.69336,0 q -0.29297,0 -0.41992,-0.11719 -0.12695,-0.11719 -0.12695,-0.30273 0,-0.17578 0.12695,-0.29297 0.12695,-0.11719 0.41992,-0.11719 l 1.51367,0 z"
       style=""
       id="path3423" />
    <path
       d="m 691.27066,871.33466 0,-13.13477 -1.98242,0 q -0.29297,0 -0.41992,-0.11719 -0.12696,-0.11718 -0.12696,-0.29297 0,-0.18554 0.12696,-0.30273 0.12695,-0.11719 0.41992,-0.11719 l 2.8125,0 0,14.78516 -2.8125,0 q -0.29297,0 -0.41992,-0.11719 -0.12696,-0.10742 -0.12696,-0.29297 0,-0.17578 0.12696,-0.29297 0.12695,-0.11718 0.41992,-0.11718 l 1.98242,0 z"
       style=""
       id="path3425" />
  </g>
</svg>
