<?xml version="1.0" encoding="UTF-8" standalone="no"?>
<!-- Created with Inkscape (http://www.inkscape.org/) -->
<svg
   xmlns:svg="http://www.w3.org/2000/svg"
   xmlns="http://www.w3.org/2000/svg"
   version="1.0"
   width="300"
   height="99"
   id="svg2253">
  <defs
     id="defs2255" />
  <g
     id="g3153">
    <path
       d="M 52.4774,55.34747 L 71.5448,29.10345 L 52.4774,2.85943 L 33.41002,29.10345 L 52.4774,55.34747 M 52.4774,55.34747 L 83.3291,65.3718 L 102.39648,39.12777 L 71.5448,29.10345 L 52.4774,55.34747 M 52.4774,55.34747 L 52.4774,87.78685 L 83.3291,97.81118 L 83.3291,65.3718 L 52.4774,55.34747 M 52.4774,55.34747 L 21.62573,65.3718 L 21.62573,97.81118 L 52.4774,87.78685 L 52.4774,55.34747 M 52.4774,55.34747 L 33.41002,29.10345 L 2.55832,39.12777 L 21.62573,65.3718 L 52.4774,55.34747"
       style="fill:none;fill-opacity:1;stroke:#1884ff;stroke-width:0.01mm;stroke-linecap:butt;stroke-linejoin:round;stroke-miterlimit:4;stroke-dasharray:none;stroke-opacity:1"
       id="path2266" />
    <path
       d="M 155.21469,50.33532 L 155.21469,32.00593 L 172.64696,26.34183 L 172.64696,44.67122 L 155.21469,50.33532 M 172.64696,26.34183 L 155.21469,32.00593 L 165.98843,17.17714 L 183.42071,11.51304 L 172.64696,26.34183 M 165.98843,17.17714 L 155.21469,2.34836 L 144.44094,17.17714 L 127.00866,11.51304 L 137.78241,26.34183 L 155.21469,32.00593 L 144.44094,17.17714 M 137.78241,26.34183 L 137.78241,44.67122 L 155.21469,50.33532 L 155.21469,32.00593 L 137.78241,26.34183 M 155.21469,50.33532 L 172.64696,44.67122 L 183.42071,59.50001 L 165.98843,65.16409 L 155.21469,50.33532 M 183.42071,59.50001 L 172.64696,44.67122 L 190.07924,50.33532 L 200.85299,65.16409 L 183.42071,59.50001 M 190.07924,50.33532 L 200.85299,35.50653 L 183.42071,29.84244 L 183.42071,11.51304 L 172.64696,26.34183 L 172.64696,44.67122 L 183.42071,29.84244 M 172.64696,26.34183 L 155.21469,32.00593 L 155.21469,50.33532 L 172.64696,44.67122 L 172.64696,26.34183 M 155.21469,50.33532 L 165.98843,65.16409 L 155.21469,79.99288 L 144.44094,65.16409 L 155.21469,50.33532 M 155.21469,79.99288 L 165.98843,65.16409 L 165.98843,83.49347 L 155.21469,98.32226 L 155.21469,79.99288 M 165.98843,83.49347 L 183.42071,89.15758 L 183.42071,70.82818 L 200.85299,65.16409 L 183.42071,59.50001 L 165.98843,65.16409 L 183.42071,70.82818 M 183.42071,59.50001 L 172.64696,44.67122 L 155.21469,50.33532 L 165.98843,65.16409 L 183.42071,59.50001 M 155.21469,50.33532 L 144.44094,65.16409 L 127.00866,59.50001 L 137.78241,44.67122 L 155.21469,50.33532 M 127.00866,59.50001 L 144.44094,65.16409 L 127.00866,70.82818 L 109.57639,65.16409 L 127.00866,59.50001 M 127.00866,70.82818 L 127.00866,89.15758 L 144.44094,83.49347 L 155.21469,98.32226 L 155.21469,79.99288 L 144.44094,65.16409 L 144.44094,83.49347 M 155.21469,79.99288 L 165.98843,65.16409 L 155.21469,50.33532 L 144.44094,65.16409 L 155.21469,79.99288 M 155.21469,50.33532 L 137.78241,44.67122 L 137.78241,26.34183 L 155.21469,32.00593 L 155.21469,50.33532 M 137.78241,26.34183 L 137.78241,44.67122 L 127.00866,29.84244 L 127.00866,11.51304 L 137.78241,26.34183 M 127.00866,29.84244 L 109.57639,35.50653 L 120.35011,50.33532 L 109.57639,65.16409 L 127.00866,59.50001 L 137.78241,44.67122 L 120.35011,50.33532 M 127.00866,59.50001 L 144.44094,65.16409 L 155.21469,50.33532 L 137.78241,44.67122 L 127.00866,59.50001"
       style="fill:none;fill-opacity:1;stroke:#1884ff;stroke-width:0.01mm;stroke-linecap:butt;stroke-linejoin:round;stroke-miterlimit:4;stroke-dasharray:none;stroke-opacity:1"
       id="path2278" />
    <path
       d="M 253.73731,50.3353 L 253.73731,38.99072 L 264.52665,35.48503 L 253.73731,31.97938 L 242.94796,35.48503 L 253.73731,38.99072 M 253.73731,31.97938 L 264.52665,35.48503 L 271.19483,26.30707 L 260.40548,22.80141 L 253.73731,31.97938 M 271.19483,26.30707 L 277.86302,35.48503 L 271.19483,44.66301 L 264.52665,35.48503 L 271.19483,26.30707 M 271.19483,44.66301 L 271.19483,56.0076 L 264.52665,46.82964 L 264.52665,35.48503 L 271.19483,44.66301 M 264.52665,46.82964 L 253.73731,50.3353 M 271.19483,26.30707 L 264.52665,35.48503 L 253.73731,31.97938 L 260.40548,22.80141 L 271.19483,26.30707 M 253.73731,31.97938 L 260.40548,22.80141 L 271.19483,26.30707 L 264.52665,17.12911 L 253.73731,13.62344 L 260.40548,22.80141 M 264.52665,17.12911 L 264.52665,5.78452 L 271.19483,14.9625 L 271.19483,26.30707 L 264.52665,17.12911 M 271.19483,14.9625 L 281.98418,11.45681 L 271.19483,14.9625 L 271.19483,26.30707 L 281.98418,22.80141 L 281.98418,11.45681 M 264.52665,17.12911 L 264.52665,5.78452 L 253.73731,2.27885 L 253.73731,13.62344 L 264.52665,17.12911 M 253.73731,2.27885 L 253.73731,13.62344 L 242.94796,17.12911 L 242.94796,5.78452 L 253.73731,2.27885 M 242.94796,17.12911 L 236.27979,26.30707 L 236.27979,14.9625 L 242.94796,5.78452 L 242.94796,17.12911 M 236.27979,14.9625 L 225.49044,11.45681 L 225.49044,22.80141 L 236.27979,26.30707 L 236.27979,14.9625 L 225.49044,11.45681 M 236.27979,26.30707 L 247.06912,22.80141 L 253.73731,31.97938 L 242.94796,35.48503 L 236.27979,26.30707 M 253.73731,31.97938 L 247.06912,22.80141 L 253.73731,13.62344 L 242.94796,17.12911 L 236.27979,26.30707 L 247.06912,22.80141 M 236.27979,26.30707 L 242.94796,35.48503 L 236.27979,44.66301 L 229.61159,35.48503 L 236.27979,26.30707 M 236.27979,44.66301 L 242.94796,35.48503 L 242.94796,46.82964 L 236.27979,56.0076 L 236.27979,44.66301 M 242.94796,46.82964 L 253.73731,50.3353 L 253.73731,38.99072 L 264.52665,35.48503 L 253.73731,31.97938 L 242.94796,35.48503 L 253.73731,38.99072 M 253.73731,31.97938 L 247.06912,22.80141 L 236.27979,26.30707 L 242.94796,35.48503 L 253.73731,31.97938 M 253.73731,50.3353 L 264.52665,46.82964 L 271.19483,56.0076 L 271.19483,44.66301 L 264.52665,35.48503 L 264.52665,46.82964 M 271.19483,44.66301 L 271.19483,56.0076 L 281.98418,59.51327 L 281.98418,48.16868 L 271.19483,44.66301 M 281.98418,59.51327 L 275.31599,68.69123 L 264.52665,65.18557 L 271.19483,56.0076 L 281.98418,59.51327 M 264.52665,65.18557 L 253.73731,68.69123 L 260.40548,59.51327 L 271.19483,56.0076 L 264.52665,65.18557 M 260.40548,59.51327 L 253.73731,50.3353 M 281.98418,59.51327 L 271.19483,56.0076 L 271.19483,44.66301 L 281.98418,48.16868 L 281.98418,59.51327 M 271.19483,44.66301 L 281.98418,48.16868 L 281.98418,59.51327 L 288.65235,50.3353 L 288.65235,38.99072 L 281.98418,48.16868 M 288.65235,50.3353 L 299.4417,46.82964 L 292.77352,56.0076 L 281.98418,59.51327 L 288.65235,50.3353 M 292.77352,56.0076 L 299.4417,65.18557 L 292.77352,56.0076 L 281.98418,59.51327 L 288.65235,68.69123 L 299.4417,65.18557 M 288.65235,50.3353 L 299.4417,46.82964 L 299.4417,35.48503 L 288.65235,38.99072 L 288.65235,50.3353 M 299.4417,35.48503 L 288.65235,38.99072 L 281.98418,29.81275 L 292.77352,26.30707 L 299.4417,35.48503 M 281.98418,29.81275 L 271.19483,26.30707 L 281.98418,22.80141 L 292.77352,26.30707 L 281.98418,29.81275 M 281.98418,22.80141 L 281.98418,11.45681 L 271.19483,14.9625 L 271.19483,26.30707 L 281.98418,22.80141 L 281.98418,11.45681 M 271.19483,26.30707 L 277.86302,35.48503 L 271.19483,44.66301 L 264.52665,35.48503 L 271.19483,26.30707 M 271.19483,44.66301 L 277.86302,35.48503 L 288.65235,38.99072 L 281.98418,29.81275 L 271.19483,26.30707 L 277.86302,35.48503 M 271.19483,26.30707 L 264.52665,35.48503 L 253.73731,31.97938 L 260.40548,22.80141 L 271.19483,26.30707 M 253.73731,31.97938 L 264.52665,35.48503 L 253.73731,38.99072 L 242.94796,35.48503 L 253.73731,31.97938 M 253.73731,38.99072 L 253.73731,50.3353 L 264.52665,46.82964 L 271.19483,56.0076 L 271.19483,44.66301 L 264.52665,35.48503 L 264.52665,46.82964 M 271.19483,44.66301 L 277.86302,35.48503 L 271.19483,26.30707 L 264.52665,35.48503 L 271.19483,44.66301 M 253.73731,50.3353 L 260.40548,59.51327 L 253.73731,68.69123 L 264.52665,65.18557 L 271.19483,56.0076 L 260.40548,59.51327 M 264.52665,65.18557 L 253.73731,68.69123 L 253.73731,80.03583 L 264.52665,76.53015 L 264.52665,65.18557 M 253.73731,80.03583 L 242.94796,76.53015 L 242.94796,65.18557 L 253.73731,68.69123 L 253.73731,80.03583 M 242.94796,65.18557 L 236.27979,56.0076 L 247.06912,59.51327 L 253.73731,68.69123 L 242.94796,65.18557 M 247.06912,59.51327 L 253.73731,50.3353 M 253.73731,80.03583 L 253.73731,68.69123 L 264.52665,65.18557 L 264.52665,76.53015 L 253.73731,80.03583 M 264.52665,65.18557 L 264.52665,76.53015 L 253.73731,80.03583 L 264.52665,83.5415 L 275.31599,80.03583 L 264.52665,76.53015 M 264.52665,83.5415 L 271.19483,92.71946 L 260.40548,89.21379 L 253.73731,80.03583 L 264.52665,83.5415 M 260.40548,89.21379 L 253.73731,98.39176 L 260.40548,89.21379 L 253.73731,80.03583 L 247.06912,89.21379 L 253.73731,98.39176 M 264.52665,83.5415 L 271.19483,92.71946 L 281.98418,89.21379 L 275.31599,80.03583 L 264.52665,83.5415 M 281.98418,89.21379 L 275.31599,80.03583 L 281.98418,70.85786 L 288.65235,80.03583 L 281.98418,89.21379 M 281.98418,70.85786 L 281.98418,59.51327 L 288.65235,68.69123 L 288.65235,80.03583 L 281.98418,70.85786 M 288.65235,68.69123 L 299.4417,65.18557 L 292.77352,56.0076 L 281.98418,59.51327 L 288.65235,68.69123 L 299.4417,65.18557 M 281.98418,59.51327 L 275.31599,68.69123 L 264.52665,65.18557 L 271.19483,56.0076 L 281.98418,59.51327 M 264.52665,65.18557 L 275.31599,68.69123 L 275.31599,80.03583 L 281.98418,70.85786 L 281.98418,59.51327 L 275.31599,68.69123 M 281.98418,59.51327 L 271.19483,56.0076 L 271.19483,44.66301 L 281.98418,48.16868 L 281.98418,59.51327 M 271.19483,44.66301 L 271.19483,56.0076 L 264.52665,46.82964 L 264.52665,35.48503 L 271.19483,44.66301 M 264.52665,46.82964 L 253.73731,50.3353 L 260.40548,59.51327 L 253.73731,68.69123 L 264.52665,65.18557 L 271.19483,56.0076 L 260.40548,59.51327 M 264.52665,65.18557 L 275.31599,68.69123 L 281.98418,59.51327 L 271.19483,56.0076 L 264.52665,65.18557 M 253.73731,50.3353 L 247.06912,59.51327 L 236.27979,56.0076 L 242.94796,65.18557 L 253.73731,68.69123 L 247.06912,59.51327 M 242.94796,65.18557 L 236.27979,56.0076 L 225.49044,59.51327 L 232.15861,68.69123 L 242.94796,65.18557 M 225.49044,59.51327 L 225.49044,48.16868 L 236.27979,44.66301 L 236.27979,56.0076 L 225.49044,59.51327 M 236.27979,44.66301 L 242.94796,35.48503 L 242.94796,46.82964 L 236.27979,56.0076 L 236.27979,44.66301 M 242.94796,46.82964 L 253.73731,50.3353 M 225.49044,59.51327 L 236.27979,56.0076 L 242.94796,65.18557 L 232.15861,68.69123 L 225.49044,59.51327 M 242.94796,65.18557 L 232.15861,68.69123 L 225.49044,59.51327 L 225.49044,70.85786 L 232.15861,80.03583 L 232.15861,68.69123 M 225.49044,70.85786 L 218.82224,80.03583 L 218.82224,68.69123 L 225.49044,59.51327 L 225.49044,70.85786 M 218.82224,68.69123 L 208.0329,65.18557 L 218.82224,68.69123 L 225.49044,59.51327 L 214.70108,56.0076 L 208.0329,65.18557 M 225.49044,70.85786 L 218.82224,80.03583 L 225.49044,89.21379 L 232.15861,80.03583 L 225.49044,70.85786 M 225.49044,89.21379 L 232.15861,80.03583 L 242.94796,83.5415 L 236.27979,92.71946 L 225.49044,89.21379 M 242.94796,83.5415 L 253.73731,80.03583 L 247.06912,89.21379 L 236.27979,92.71946 L 242.94796,83.5415 M 247.06912,89.21379 L 253.73731,98.39176 L 260.40548,89.21379 L 253.73731,80.03583 L 247.06912,89.21379 L 253.73731,98.39176 M 253.73731,80.03583 L 242.94796,76.53015 L 242.94796,65.18557 L 253.73731,68.69123 L 253.73731,80.03583 M 242.94796,65.18557 L 242.94796,76.53015 L 232.15861,80.03583 L 242.94796,83.5415 L 253.73731,80.03583 L 242.94796,76.53015 M 253.73731,80.03583 L 253.73731,68.69123 L 264.52665,65.18557 L 264.52665,76.53015 L 253.73731,80.03583 M 264.52665,65.18557 L 253.73731,68.69123 L 260.40548,59.51327 L 271.19483,56.0076 L 264.52665,65.18557 M 260.40548,59.51327 L 253.73731,50.3353 L 247.06912,59.51327 L 236.27979,56.0076 L 242.94796,65.18557 L 253.73731,68.69123 L 247.06912,59.51327 M 242.94796,65.18557 L 242.94796,76.53015 L 253.73731,80.03583 L 253.73731,68.69123 L 242.94796,65.18557 M 253.73731,50.3353 L 242.94796,46.82964 L 242.94796,35.48503 L 236.27979,44.66301 L 236.27979,56.0076 L 242.94796,46.82964 M 236.27979,44.66301 L 242.94796,35.48503 L 236.27979,26.30707 L 229.61159,35.48503 L 236.27979,44.66301 M 236.27979,26.30707 L 247.06912,22.80141 L 253.73731,31.97938 L 242.94796,35.48503 L 236.27979,26.30707 M 253.73731,31.97938 L 264.52665,35.48503 L 253.73731,38.99072 L 242.94796,35.48503 L 253.73731,31.97938 M 253.73731,38.99072 L 253.73731,50.3353 M 236.27979,26.30707 L 242.94796,35.48503 L 236.27979,44.66301 L 229.61159,35.48503 L 236.27979,26.30707 M 236.27979,44.66301 L 229.61159,35.48503 L 236.27979,26.30707 L 225.49044,29.81275 L 218.82224,38.99072 L 229.61159,35.48503 M 225.49044,29.81275 L 214.70108,26.30707 L 225.49044,22.80141 L 236.27979,26.30707 L 225.49044,29.81275 M 225.49044,22.80141 L 225.49044,11.45681 L 225.49044,22.80141 L 236.27979,26.30707 L 236.27979,14.9625 L 225.49044,11.45681 M 225.49044,29.81275 L 214.70108,26.30707 L 208.0329,35.48503 L 218.82224,38.99072 L 225.49044,29.81275 M 208.0329,35.48503 L 218.82224,38.99072 L 218.82224,50.3353 L 208.0329,46.82964 L 208.0329,35.48503 M 218.82224,50.3353 L 225.49044,59.51327 L 214.70108,56.0076 L 208.0329,46.82964 L 218.82224,50.3353 M 214.70108,56.0076 L 208.0329,65.18557 L 218.82224,68.69123 L 225.49044,59.51327 L 214.70108,56.0076 L 208.0329,65.18557 M 225.49044,59.51327 L 225.49044,48.16868 L 236.27979,44.66301 L 236.27979,56.0076 L 225.49044,59.51327 M 236.27979,44.66301 L 225.49044,48.16868 L 218.82224,38.99072 L 218.82224,50.3353 L 225.49044,59.51327 L 225.49044,48.16868 M 225.49044,59.51327 L 236.27979,56.0076 L 242.94796,65.18557 L 232.15861,68.69123 L 225.49044,59.51327 M 242.94796,65.18557 L 236.27979,56.0076 L 247.06912,59.51327 L 253.73731,68.69123 L 242.94796,65.18557 M 247.06912,59.51327 L 253.73731,50.3353 L 242.94796,46.82964 L 242.94796,35.48503 L 236.27979,44.66301 L 236.27979,56.0076 L 242.94796,46.82964 M 236.27979,44.66301 L 225.49044,48.16868 L 225.49044,59.51327 L 236.27979,56.0076 L 236.27979,44.66301"
       style="fill:none;fill-opacity:1;stroke:#1884ff;stroke-width:0.01mm;stroke-linecap:butt;stroke-linejoin:round;stroke-miterlimit:4;stroke-dasharray:none;stroke-opacity:1"
       id="path2292" />
  </g>
</svg>
